<svg
  width="264"
  height="67"
  viewBox="0 0 264 67"
  fill="none"
  xmlns="http://www.w3.org/2000/svg"
>
<line x1="2" y1="8.74228e-08" x2="2" y2="67" stroke="white" stroke-width="4" />
<line
    x1="62.2305"
    y1="8.70115e-08"
    x2="62.2305"
    y2="67"
    stroke="white"
    stroke-width="4"
  />
<line x1="9.94922" y1="2.17529e-08" x2="9.94922" y2="67" stroke="white" />
<line x1="73.7227" y1="2.17529e-08" x2="73.7227" y2="67" stroke="white" />
<line x1="38.293" y1="2.17529e-08" x2="38.293" y2="67" stroke="white" />
<line x1="43.0156" y1="2.17529e-08" x2="43.0156" y2="67" stroke="white" />
<line
    x1="15.6719"
    y1="6.52586e-08"
    x2="15.6719"
    y2="67"
    stroke="white"
    stroke-width="3"
  />
<line
    x1="69.9961"
    y1="6.52586e-08"
    x2="69.9961"
    y2="67"
    stroke="white"
    stroke-width="3"
  />
<line
    x1="34.5664"
    y1="6.52586e-08"
    x2="34.5664"
    y2="67"
    stroke="white"
    stroke-width="3"
  />
<line
    x1="26.6211"
    y1="1.30517e-07"
    x2="26.6211"
    y2="67"
    stroke="white"
    stroke-width="6"
  />
<line
    x1="47.8789"
    y1="1.30517e-07"
    x2="47.8789"
    y2="67"
    stroke="white"
    stroke-width="6"
  />
<line
    x1="78.7656"
    y1="8.70115e-08"
    x2="78.7656"
    y2="67"
    stroke="white"
    stroke-width="4"
  />
<line
    x1="138.996"
    y1="8.70115e-08"
    x2="138.996"
    y2="67"
    stroke="white"
    stroke-width="4"
  />
<line x1="86.7109" y1="2.17529e-08" x2="86.7109" y2="67" stroke="white" />
<line x1="150.488" y1="2.17529e-08" x2="150.488" y2="67" stroke="white" />
<line x1="115.055" y1="2.17529e-08" x2="115.055" y2="67" stroke="white" />
<line x1="119.781" y1="2.17529e-08" x2="119.781" y2="67" stroke="white" />
<line
    x1="92.4375"
    y1="6.52586e-08"
    x2="92.4375"
    y2="67"
    stroke="white"
    stroke-width="3"
  />
<line
    x1="146.762"
    y1="6.52586e-08"
    x2="146.762"
    y2="67"
    stroke="white"
    stroke-width="3"
  />
<line
    x1="111.332"
    y1="6.52586e-08"
    x2="111.332"
    y2="67"
    stroke="white"
    stroke-width="3"
  />
<line
    x1="103.383"
    y1="1.30517e-07"
    x2="103.383"
    y2="67"
    stroke="white"
    stroke-width="6"
  />
<line
    x1="124.641"
    y1="1.30517e-07"
    x2="124.641"
    y2="67"
    stroke="white"
    stroke-width="6"
  />
<line
    x1="155.531"
    y1="8.70115e-08"
    x2="155.531"
    y2="67"
    stroke="white"
    stroke-width="4"
  />
<line
    x1="215.762"
    y1="8.70115e-08"
    x2="215.762"
    y2="67"
    stroke="white"
    stroke-width="4"
  />
<line x1="163.477" y1="2.17529e-08" x2="163.477" y2="67" stroke="white" />
<line x1="227.25" y1="2.17529e-08" x2="227.25" y2="67" stroke="white" />
<line x1="191.82" y1="2.17529e-08" x2="191.82" y2="67" stroke="white" />
<line x1="196.547" y1="2.17529e-08" x2="196.547" y2="67" stroke="white" />
<line
    x1="169.203"
    y1="6.52586e-08"
    x2="169.203"
    y2="67"
    stroke="white"
    stroke-width="3"
  />
<line
    x1="223.527"
    y1="6.52586e-08"
    x2="223.527"
    y2="67"
    stroke="white"
    stroke-width="3"
  />
<line
    x1="188.098"
    y1="6.52586e-08"
    x2="188.098"
    y2="67"
    stroke="white"
    stroke-width="3"
  />
<line
    x1="180.148"
    y1="1.30517e-07"
    x2="180.148"
    y2="67"
    stroke="white"
    stroke-width="6"
  />
<line
    x1="201.406"
    y1="1.30517e-07"
    x2="201.406"
    y2="67"
    stroke="white"
    stroke-width="6"
  />
<line
    x1="262.5"
    y1="6.52586e-08"
    x2="262.5"
    y2="67"
    stroke="white"
    stroke-width="3"
  />
<line
    x1="240.062"
    y1="6.52586e-08"
    x2="240.062"
    y2="67"
    stroke="white"
    stroke-width="3"
  />
<line
    x1="232.113"
    y1="1.30517e-07"
    x2="232.113"
    y2="67"
    stroke="white"
    stroke-width="6"
  />
<line
    x1="253.371"
    y1="1.30517e-07"
    x2="253.371"
    y2="67"
    stroke="white"
    stroke-width="6"
  />
</svg>
