<svg
  width="30"
  height="28"
  viewBox="0 0 30 28"
  fill="none"
  xmlns="http://www.w3.org/2000/svg"
>
<path
    d="M14.375 4.29486L13.448 3.32657C10.1573 -0.110938 4.20762 1.10689 2.06902 5.35007L2.06885 5.3504C1.047 7.38158 0.857832 10.2463 2.63228 13.8055L2.63232 13.8056C4.3355 17.2202 7.84548 21.2484 14.0893 25.601L14.3753 25.8003L14.6612 25.601C20.9052 21.2483 24.4132 17.2202 26.1181 13.8058L26.1183 13.8055C27.8925 10.2447 27.7055 7.38168 26.6815 5.35006C24.543 1.10712 18.5934 -0.112942 15.3025 3.32475L15.3023 3.32499L14.375 4.29486ZM13.7175 2.45247L13.7182 2.45315C13.8196 2.54763 13.9183 2.64459 14.0129 2.74406L14.377 3.12701L14.7392 2.74238C14.8317 2.64424 14.9278 2.54986 15.0275 2.45942L15.0275 2.45947L15.0332 2.45414C18.8403 -1.10991 25.259 0.451337 27.4753 5.14821C28.5702 7.46855 28.6527 10.6055 26.7513 14.3293C24.8704 18.0127 21.0498 22.2601 14.3753 26.788C7.70069 22.2605 3.88 18.0136 1.999 14.3305C0.0974094 10.6071 0.179744 7.47035 1.27455 5.15002C3.4907 0.453124 9.90948 -1.10907 13.7175 2.45247Z"
    stroke="white"
  />
<path
    d="M14.3753 27.3913C-13.1771 8.88944 5.89195 -5.55119 14.059 2.0873C14.1668 2.18773 14.2728 2.29182 14.3753 2.39956C14.4767 2.29192 14.5822 2.18836 14.6915 2.08912C22.8568 -5.55484 41.9276 8.88761 14.3753 27.3913Z"
    fill="#E32626"
  />
</svg>
