<svg
  width="30"
  height="28"
  viewBox="0 0 30 28"
  fill="none"
  xmlns="http://www.w3.org/2000/svg"
>
<path
    d="M14.9976 4.29486L14.0706 3.32657C10.7799 -0.110938 4.83018 1.10689 2.69158 5.35007L2.69141 5.3504C1.66956 7.38158 1.48039 10.2463 3.25484 13.8055L3.25488 13.8056C4.95805 17.2202 8.46804 21.2484 14.7119 25.601L14.9978 25.8003L15.2838 25.601C21.5277 21.2483 25.0358 17.2202 26.7407 13.8058L26.7409 13.8055C28.5151 10.2447 28.3281 7.38168 27.3041 5.35006C25.1656 1.10712 19.216 -0.112942 15.925 3.32475L15.9248 3.32499L14.9976 4.29486ZM14.34 2.45247L14.3408 2.45315C14.4422 2.54763 14.5409 2.64459 14.6354 2.74406L14.9995 3.12701L15.3618 2.74238C15.4542 2.64424 15.5504 2.54986 15.6501 2.45942L15.6501 2.45947L15.6558 2.45414C19.4629 -1.10991 25.8815 0.451337 28.0979 5.14821C29.1928 7.46855 29.2753 10.6055 27.3738 14.3293C25.493 18.0127 21.6724 22.2601 14.9978 26.788C8.32325 22.2605 4.50256 18.0136 2.62156 14.3305C0.719968 10.6071 0.802302 7.47035 1.89711 5.15002C4.11326 0.453124 10.532 -1.10907 14.34 2.45247Z"
    stroke="#C4C4C4"
  />
<path
    d="M14.34 2.45247L14.3408 2.45315C14.4422 2.54763 14.5409 2.64459 14.6354 2.74406L14.9995 3.12701L15.3618 2.74237C15.4542 2.64424 15.5504 2.54985 15.6501 2.45942L15.6501 2.45947L15.6558 2.45414C19.4629 -1.10991 25.8815 0.451337 28.0979 5.14821C29.1928 7.46855 29.2753 10.6055 27.3738 14.3293C25.493 18.0127 21.6724 22.2601 14.9978 26.788C8.32325 22.2605 4.50256 18.0136 2.62156 14.3305C0.719968 10.6071 0.802302 7.47035 1.89711 5.15002C4.11326 0.453125 10.532 -1.10907 14.34 2.45247Z"
    stroke="#C4C4C4"
  />
</svg>
