<svg
  width="27"
  height="21"
  viewBox="0 0 27 21"
  fill="none"
  xmlns="http://www.w3.org/2000/svg"
>
<path
    d="M19.4474 17.9221C18.5622 17.9221 17.6976 17.7492 16.8772 17.4087C15.9773 17.0355 15.1716 16.4762 14.4825 15.7478C13.7933 15.0193 13.2641 14.1671 12.911 13.2166C12.6656 12.556 12.5115 11.861 12.4526 11.1505C12.3943 10.4455 12.4312 9.73576 12.5617 9.0424C12.8329 7.60426 13.497 6.2931 14.4825 5.2515C15.1532 4.54256 15.9345 3.9941 16.805 3.62093C17.646 3.26023 18.5356 3.07715 19.4474 3.07715C20.3326 3.07715 21.1972 3.2501 22.0176 3.59055C22.9175 3.96372 23.7232 4.52308 24.4123 5.2515C25.1015 5.97992 25.6307 6.83221 25.9838 7.78266C26.2292 8.44331 26.3833 9.13823 26.4422 9.84873C26.5005 10.5538 26.4636 11.2635 26.3331 11.9569C26.0619 13.395 25.3978 14.7062 24.4123 15.7478C23.7416 16.4567 22.9603 17.0052 22.0898 17.3783C21.2488 17.739 20.3599 17.9221 19.4474 17.9221ZM19.4474 8.08883C18.8378 8.08883 18.2651 8.33969 17.8339 8.79544C17.2561 9.40622 17.0313 10.3037 17.2465 11.1373C17.3504 11.5393 17.5539 11.9086 17.8339 12.2054C18.1148 12.5022 18.4641 12.7164 18.8445 12.8263C19.0405 12.8832 19.2432 12.9112 19.4474 12.9112C20.057 12.9112 20.6297 12.6604 21.0609 12.2046C21.6387 11.5938 21.8635 10.6963 21.6483 9.86197C21.5444 9.45998 21.3409 9.0907 21.0609 8.79388C20.78 8.49706 20.4307 8.28282 20.0503 8.17297C19.8543 8.11766 19.6516 8.08883 19.4474 8.08883Z"
    fill="#C4C4C4"
  />
<path
    d="M19.4471 3.15581C19.879 3.15581 20.3131 3.19866 20.7369 3.2828C21.1644 3.36772 21.5868 3.49626 21.9907 3.66376C22.4263 3.8445 22.8457 4.07276 23.2378 4.3431C23.6403 4.62044 24.0177 4.94453 24.3611 5.30679C24.7046 5.66906 25.0105 6.06871 25.2729 6.49408C25.5287 6.90854 25.7446 7.35182 25.9156 7.81225C26.1589 8.46588 26.3114 9.15379 26.3697 9.8565C26.4272 10.5545 26.391 11.2565 26.262 11.9428C25.9938 13.3662 25.3363 14.6633 24.3611 15.6932C24.028 16.0453 23.6609 16.3624 23.271 16.6343C22.8914 16.8992 22.4845 17.1259 22.0629 17.3066C21.6487 17.4843 21.2153 17.6198 20.7753 17.7102C20.3397 17.7998 19.893 17.845 19.4478 17.845C19.0159 17.845 18.5817 17.8021 18.1579 17.718C17.7304 17.6331 17.3081 17.5045 16.9042 17.337C16.4685 17.1563 16.0492 16.928 15.657 16.6577C15.2546 16.3803 14.8772 16.0562 14.5337 15.694C14.1903 15.3317 13.8844 14.9321 13.622 14.5067C13.3662 14.0922 13.1502 13.649 12.9792 13.1885C12.736 12.5349 12.5834 11.847 12.5252 11.1443C12.4677 10.4462 12.5038 9.74431 12.6328 9.05796C12.9011 7.63462 13.5586 6.33749 14.5337 5.30757C14.8669 4.95544 15.234 4.63836 15.6239 4.36647C16.0035 4.10159 16.4103 3.87488 16.8319 3.69414C17.2462 3.51652 17.6796 3.38096 18.1196 3.29059C18.5559 3.201 19.0026 3.15581 19.4471 3.15581ZM19.4471 12.9891C20.0758 12.9891 20.6677 12.7304 21.1121 12.2599C21.7084 11.6296 21.9406 10.7033 21.7187 9.8417C21.6118 9.42646 21.4018 9.0455 21.1121 8.73933C20.8224 8.43316 20.462 8.2119 20.0692 8.09816C19.8665 8.03973 19.6571 8.01013 19.4471 8.01013C18.8176 8.01013 18.2265 8.26878 17.782 8.73933C17.1857 9.36959 16.9535 10.2959 17.1754 11.1575C17.2823 11.5728 17.4923 11.9537 17.782 12.2599C18.0717 12.5661 18.4321 12.7873 18.825 12.9011C19.0277 12.9595 19.237 12.9891 19.4471 12.9891ZM19.4471 3C17.6309 3 15.8155 3.73232 14.4298 5.19695C12.3712 7.37286 11.8419 10.553 12.8421 13.2454C13.1886 14.1772 13.7178 15.0505 14.4298 15.8038C15.1426 16.5572 15.9688 17.1165 16.8504 17.4819C17.6832 17.8278 18.5655 18 19.4478 18C21.264 18 23.0794 17.2677 24.4651 15.8031C26.5237 13.6271 27.0529 10.447 26.0527 7.7546C25.7063 6.82284 25.1771 5.94952 24.4651 5.19617C23.7523 4.44282 22.9261 3.88345 22.0445 3.51807C21.2116 3.17295 20.3293 3 19.4471 3ZM19.4471 12.8333C19.251 12.8333 19.0542 12.806 18.8633 12.7507C18.5051 12.6471 18.1668 12.4469 17.8852 12.15C17.6036 11.8532 17.4142 11.4949 17.3169 11.1162C17.115 10.3348 17.3044 9.46385 17.8852 8.84995C18.3164 8.3942 18.881 8.16672 19.4463 8.16672C19.6424 8.16672 19.8392 8.19399 20.0301 8.2493C20.3883 8.35291 20.7266 8.55313 21.0082 8.84995C21.2897 9.14677 21.4792 9.50514 21.5765 9.88376C21.7784 10.6652 21.589 11.5361 21.0082 12.15C20.577 12.6058 20.0124 12.8333 19.4471 12.8333Z"
    fill="#C4C4C4"
  />
<g opacity="0.4">
<path
      opacity="0.4"
      d="M17.8851 12.1497C18.7474 13.0612 20.1449 13.0612 21.0073 12.1497C21.8697 11.2382 21.8697 9.76114 21.0073 8.84964C20.1449 7.93814 18.7474 7.93814 17.8851 8.84964C17.0227 9.76114 17.0227 11.2382 17.8851 12.1497ZM20.212 9.69024C20.6351 10.1374 20.6351 10.8619 20.212 11.3084C19.7889 11.7548 19.1034 11.7555 18.6811 11.3084C18.258 10.8612 18.258 10.1366 18.6811 9.69024C19.1034 9.24384 19.7889 9.24384 20.212 9.69024Z"
      fill="white"
    />
</g>
<g opacity="0.4">
<path
      opacity="0.4"
      d="M22.0449 3.51855C22.9265 3.88471 23.7527 4.44408 24.4655 5.19665C25.1782 5.95 25.7075 6.82332 26.0531 7.75508L21.5776 9.88347C21.4796 9.50484 21.2902 9.14725 21.0093 8.84965C20.7278 8.55205 20.3895 8.35184 20.0312 8.249L22.0449 3.51855Z"
      fill="white"
    />
</g>
<path
    opacity="0.6"
    d="M22.0449 3.51953C22.9265 3.88569 23.7527 4.44505 24.4655 5.19762L21.0093 8.85063C20.7278 8.55303 20.3895 8.35281 20.0312 8.24998L22.0449 3.51953Z"
    fill="white"
  />
<rect
    x="0.5"
    y="0.5"
    width="18.976"
    height="20"
    rx="1.5"
    fill="#C4C4C4"
    stroke="#2D2D2D"
    stroke-linejoin="round"
  />
<path
    d="M4.78447 11L1.47266 14V19.5H18.5026V15L12.8264 8L7.62279 14L4.78447 11Z"
    fill="#2D2D2D"
  />
<ellipse cx="5.73206" cy="5" rx="1.89222" ry="2" fill="#2D2D2D" />
</svg>
