<svg
  width="18"
  height="18"
  viewBox="0 0 18 18"
  fill="none"
  xmlns="http://www.w3.org/2000/svg"
>
<rect x="0.5" y="0.5" width="17" height="17" rx="4.5" stroke="#008BFF" />
<path
    d="M0 5C0 2.23858 2.23858 0 5 0H13C15.7614 0 18 2.23858 18 5H0Z"
    fill="#008BFF"
  />
<rect x="2" y="7" width="2" height="1" rx="0.5" fill="#008BFF" />
<rect x="2" y="10" width="2" height="1" rx="0.5" fill="#008BFF" />
<rect x="2" y="13" width="2" height="1" rx="0.5" fill="#008BFF" />
<rect x="10" y="7" width="2" height="1" rx="0.5" fill="#008BFF" />
<rect x="10" y="10" width="2" height="1" rx="0.5" fill="#008BFF" />
<rect x="10" y="13" width="2" height="1" rx="0.5" fill="#008BFF" />
<rect x="14" y="7" width="2" height="1" rx="0.5" fill="#008BFF" />
<rect x="14" y="10" width="2" height="1" rx="0.5" fill="#008BFF" />
<rect x="14" y="13" width="2" height="1" rx="0.5" fill="#008BFF" />
<rect x="6" y="7" width="2" height="1" rx="0.5" fill="#008BFF" />
<rect x="6" y="10" width="2" height="1" rx="0.5" fill="#008BFF" />
<rect x="6" y="13" width="2" height="1" rx="0.5" fill="#008BFF" />
</svg>
