<svg
  width="30"
  height="30"
  viewBox="0 0 30 30"
  fill="none"
  xmlns="http://www.w3.org/2000/svg"
>
<path
    d="M14.5236 7.83292C15.2874 7.83292 15.9065 7.19876 15.9065 6.41647C15.9065 5.63419 15.2874 5 14.5236 5C13.7598 5 13.1406 5.63419 13.1406 6.41647C13.1406 7.19876 13.7598 7.83292 14.5236 7.83292Z"
    stroke="#C4C4C4"
    stroke-linecap="round"
    stroke-linejoin="round"
  />
<path
    d="M21.4437 6.5498H7.67978C7.30435 6.5498 7 6.86152 7 7.24605V8.04744C7 8.43197 7.30435 8.74369 7.67978 8.74369H21.4437C21.8191 8.74369 22.1235 8.43197 22.1235 8.04744V7.24605C22.1235 6.86152 21.8191 6.5498 21.4437 6.5498Z"
    fill="#C4C4C4"
  />
<path
    fill-rule="evenodd"
    clip-rule="evenodd"
    d="M9.2221 7.64648H19.8777C20.132 7.64648 20.3381 7.8576 20.3381 8.11802V24.6934C20.3381 24.9538 20.132 25.1649 19.8777 25.1649H9.2221C8.96784 25.1649 8.76172 24.9538 8.76172 24.6934V8.11802C8.76172 7.8576 8.96784 7.64648 9.2221 7.64648ZM14.5488 10.409C14.8592 10.409 15.1109 10.6668 15.1109 10.9848V23.1486C15.1109 23.4666 14.8592 23.7244 14.5488 23.7244C14.2383 23.7244 13.9866 23.4666 13.9866 23.1486V10.9848C13.9866 10.6668 14.2383 10.409 14.5488 10.409ZM11.7419 10.9848C11.7419 10.6668 11.4902 10.409 11.1797 10.409C10.8693 10.409 10.6176 10.6668 10.6176 10.9848V23.1486C10.6176 23.4666 10.8693 23.7244 11.1797 23.7244C11.4902 23.7244 11.7419 23.4666 11.7419 23.1486V10.9848ZM17.9212 10.409C18.2317 10.409 18.4834 10.6668 18.4834 10.9848V23.1486C18.4834 23.4666 18.2317 23.7244 17.9212 23.7244C17.6107 23.7244 17.359 23.4666 17.359 23.1486V10.9848C17.359 10.6668 17.6107 10.409 17.9212 10.409Z"
    fill="#C4C4C4"
  />
</svg>
