<svg width="15" height="15" viewBox="0 0 15 15" fill="none" xmlns="http://www.w3.org/2000/svg">
<path fill-rule="evenodd" clip-rule="evenodd" d="M15 7.5C15 11.6421 11.6421 15 7.5 15C3.35786 15 0 11.6421 0 7.5C0 3.35786 3.35786 0 7.5 0C11.6421 0 15 3.35786 15 7.5ZM7.96876 10.1557H6.94011V9.04232C6.94011 8.15405 7.36999 7.79091 8.17011 7.11501C8.19381 7.09498 8.21784 7.07468 8.2422 7.05408C8.78908 6.60341 9.1146 5.84788 9.1146 5.09235C9.1146 4.1645 8.43751 3.78011 7.47397 3.78011C6.70573 3.78011 6.31511 3.91266 5.74219 4.11148L5.625 3.21015C6.21094 2.94505 6.94011 2.8125 7.74741 2.8125C9.10158 2.8125 10.3125 3.50176 10.3125 5.06584C10.3125 6.166 9.86981 6.93479 8.91929 7.73008C8.87885 7.76484 8.83947 7.79846 8.80119 7.83115C8.28476 8.27207 7.96876 8.54186 7.96876 9.12185V10.1557ZM7.96876 12.1875H6.83594V11.0306H7.96876V12.1875Z" fill="#C4C4C4"/>
</svg>
