<svg
  width="14"
  height="14"
  viewBox="0 0 14 14"
  fill="none"
  xmlns="http://www.w3.org/2000/svg"
>
<path
    d="M6.9987 1.16675C5.76102 1.16675 4.57404 1.65841 3.69887 2.53358C2.8237 3.40875 2.33203 4.59574 2.33203 5.83341C2.33203 8.98341 6.44453 12.5417 6.61953 12.6934C6.72519 12.7838 6.85966 12.8335 6.9987 12.8335C7.13774 12.8335 7.2722 12.7838 7.37786 12.6934C7.58203 12.5417 11.6654 8.98341 11.6654 5.83341C11.6654 4.59574 11.1737 3.40875 10.2985 2.53358C9.42336 1.65841 8.23637 1.16675 6.9987 1.16675ZM6.9987 11.4626C5.7562 10.2959 3.4987 7.78175 3.4987 5.83341C3.4987 4.90516 3.86745 4.01492 4.52382 3.35854C5.1802 2.70216 6.07044 2.33341 6.9987 2.33341C7.92695 2.33341 8.81719 2.70216 9.47357 3.35854C10.1299 4.01492 10.4987 4.90516 10.4987 5.83341C10.4987 7.78175 8.2412 10.3017 6.9987 11.4626ZM6.9987 3.50008C6.53721 3.50008 6.08608 3.63693 5.70237 3.89332C5.31865 4.14971 5.01958 4.51413 4.84298 4.94049C4.66637 5.36685 4.62017 5.836 4.7102 6.28863C4.80023 6.74125 5.02246 7.15701 5.34878 7.48333C5.6751 7.80965 6.09086 8.03188 6.54349 8.12191C6.99611 8.21195 7.46526 8.16574 7.89163 7.98913C8.31799 7.81253 8.6824 7.51346 8.93879 7.12975C9.19518 6.74603 9.33203 6.2949 9.33203 5.83341C9.33203 5.21458 9.0862 4.62108 8.64861 4.1835C8.21103 3.74591 7.61754 3.50008 6.9987 3.50008ZM6.9987 7.00008C6.76795 7.00008 6.54239 6.93166 6.35053 6.80346C6.15867 6.67527 6.00914 6.49306 5.92084 6.27988C5.83254 6.0667 5.80943 5.83212 5.85445 5.60581C5.89946 5.3795 6.01058 5.17162 6.17374 5.00846C6.3369 4.8453 6.54478 4.73418 6.77109 4.68916C6.9974 4.64415 7.23198 4.66725 7.44516 4.75555C7.65834 4.84386 7.84055 4.99339 7.96874 5.18525C8.09694 5.37711 8.16536 5.60267 8.16536 5.83341C8.16536 6.14283 8.04245 6.43958 7.82365 6.65837C7.60486 6.87716 7.30812 7.00008 6.9987 7.00008Z"
    fill="white"
  />
</svg>
