<svg
  width="20"
  height="20"
  viewBox="0 0 20 20"
  fill="none"
  xmlns="http://www.w3.org/2000/svg"
>
<path
    d="M10.0009 19.8968C8.75338 19.8968 7.53493 19.6662 6.37881 19.2123C5.1105 18.7147 3.97515 17.9689 3.00392 16.9977C2.0327 16.0264 1.28688 14.8901 0.789319 13.6228C0.443417 12.7419 0.226319 11.8154 0.143219 10.868C0.0611585 9.92797 0.113096 8.98167 0.296954 8.05719C0.679212 6.13966 1.61512 4.39146 3.00392 3.00265C3.94918 2.0574 5.05025 1.32612 6.27701 0.82856C7.46222 0.347621 8.71598 0.103516 10.0009 0.103516C11.2484 0.103516 12.4669 0.334117 13.623 0.788048C14.8913 1.28561 16.0267 2.03143 16.9979 3.00265C17.9691 3.97388 18.7149 5.11027 19.2125 6.37754C19.5584 7.25839 19.7755 8.18495 19.8586 9.13229C19.9407 10.0724 19.8887 11.0187 19.7049 11.9431C19.3226 13.8607 18.3867 15.6089 16.9979 16.9977C16.0526 17.9429 14.9516 18.6742 13.7248 19.1718C12.5396 19.6527 11.2869 19.8968 10.0009 19.8968ZM10.0009 6.78576C9.14187 6.78576 8.33476 7.12024 7.7271 7.7279C6.91272 8.54228 6.59591 9.73892 6.89922 10.8504C7.04568 11.3864 7.33238 11.8787 7.7271 12.2745C8.12286 12.6703 8.61522 12.9559 9.15122 13.1024C9.42752 13.1782 9.71318 13.2156 10.0009 13.2156C10.86 13.2156 11.6671 12.8811 12.2747 12.2735C13.0891 11.4591 13.4059 10.2624 13.1026 9.14995C12.9561 8.61395 12.6694 8.12159 12.2747 7.72583C11.879 7.33007 11.3866 7.04441 10.8506 6.89795C10.5743 6.8242 10.2886 6.78576 10.0009 6.78576Z"
    fill="#C4C4C4"
  />
<path
    d="M9.99957 0.207749C10.6083 0.207749 11.2201 0.26488 11.8174 0.377064C12.4198 0.490288 13.015 0.661681 13.5843 0.885011C14.1982 1.126 14.7892 1.43035 15.3418 1.7908C15.909 2.16059 16.4408 2.59271 16.9249 3.07573C17.4089 3.55874 17.84 4.09162 18.2098 4.65877C18.5703 5.21138 18.8746 5.80243 19.1156 6.41633C19.4584 7.28784 19.6734 8.20505 19.7555 9.142C19.8365 10.0727 19.7856 11.0086 19.6038 11.9238C19.2257 13.8215 18.2991 15.5511 16.9249 16.9243C16.4554 17.3938 15.9381 17.8166 15.3886 18.1791C14.8536 18.5323 14.2802 18.8345 13.6861 19.0755C13.1023 19.3124 12.4915 19.4931 11.8714 19.6136C11.2575 19.733 10.628 19.7933 10.0006 19.7933C9.3919 19.7933 8.78008 19.7362 8.1828 19.624C7.58033 19.5108 6.98513 19.3394 6.4159 19.116C5.802 18.875 5.21095 18.5707 4.65834 18.2102C4.09118 17.8404 3.55935 17.4083 3.07529 16.9253C2.59124 16.4423 2.16016 15.9094 1.79036 15.3423C1.42992 14.7897 1.12557 14.1986 0.884579 13.5847C0.541793 12.7132 0.326773 11.796 0.244712 10.859C0.16369 9.92833 0.214588 8.99242 0.396368 8.07728C0.774472 6.1795 1.70103 4.44998 3.07529 3.07676C3.54481 2.60725 4.0621 2.18448 4.6116 1.82196C5.14655 1.46879 5.71994 1.16651 6.3141 0.925522C6.89787 0.688688 7.50866 0.507946 8.12879 0.387452C8.74372 0.267996 9.3732 0.207749 9.99957 0.207749ZM9.99957 13.3188C10.8856 13.3188 11.7197 12.9739 12.3461 12.3465C13.1864 11.5062 13.5136 10.2711 13.201 9.12226C13.0504 8.56861 12.7543 8.06066 12.3461 7.65244C11.9379 7.24421 11.4299 6.94921 10.8763 6.79755C10.5906 6.71964 10.2956 6.68017 9.99957 6.68017C9.11248 6.68017 8.2794 7.02503 7.65304 7.65244C6.8127 8.49278 6.48549 9.72785 6.79816 10.8767C6.94877 11.4304 7.24481 11.9383 7.65304 12.3465C8.06127 12.7548 8.56921 13.0498 9.12287 13.2014C9.40852 13.2793 9.70352 13.3188 9.99957 13.3188ZM9.99957 0C7.4401 0 4.88167 0.976421 2.92883 2.92926C0.0276139 5.83048 -0.718205 10.0706 0.691372 13.6605C1.17958 14.9029 1.9254 16.0673 2.92883 17.0718C3.9333 18.0762 5.09773 18.8221 6.34007 19.3092C7.51385 19.7704 8.75723 20 10.0006 20C12.5601 20 15.1185 19.0236 17.0713 17.0707C19.9726 14.1695 20.7184 9.92937 19.3088 6.33946C18.8206 5.09712 18.0748 3.93269 17.0713 2.92822C16.0669 1.92376 14.9024 1.17794 13.6601 0.690766C12.4863 0.230601 11.2429 0 9.99957 0ZM9.99957 13.111C9.72326 13.111 9.44592 13.0747 9.17688 13.0009C8.67205 12.8628 8.19527 12.5958 7.79847 12.2001C7.40167 11.8043 7.13471 11.3265 6.99759 10.8216C6.71298 9.77979 6.97993 8.61847 7.79847 7.79994C8.40613 7.19227 9.20181 6.88896 9.99853 6.88896C10.2748 6.88896 10.5522 6.92531 10.8212 6.99907C11.326 7.13722 11.8028 7.40418 12.1996 7.79994C12.5964 8.1957 12.8634 8.67352 13.0005 9.17835C13.2851 10.2202 13.0182 11.3815 12.1996 12.2001C11.592 12.8077 10.7963 13.111 9.99957 13.111Z"
    fill="#C4C4C4"
  />
<g opacity="0.4">
<path
      opacity="0.4"
      d="M7.79822 12.1993C9.01355 13.4147 10.983 13.4147 12.1983 12.1993C13.4137 10.984 13.4137 9.01453 12.1983 7.79919C10.983 6.58386 9.01355 6.58386 7.79822 7.79919C6.58289 9.01453 6.58289 10.984 7.79822 12.1993ZM11.0775 8.92C11.6738 9.51624 11.6738 10.4823 11.0775 11.0775C10.4813 11.6727 9.51526 11.6737 8.92006 11.0775C8.32382 10.4812 8.32382 9.5152 8.92006 8.92C9.51526 8.3248 10.4813 8.3248 11.0775 8.92Z"
      fill="white"
    />
</g>
<g opacity="0.4">
<path
      opacity="0.4"
      d="M13.6621 0.691406C14.9044 1.17962 16.0688 1.92544 17.0733 2.92886C18.0778 3.93333 18.8236 5.09776 19.3108 6.3401L13.0035 9.17795C12.8654 8.67312 12.5984 8.19634 12.2026 7.79954C11.8058 7.40274 11.329 7.13578 10.8242 6.99867L13.6621 0.691406Z"
      fill="white"
    />
</g>
<path
    opacity="0.6"
    d="M13.6582 0.692383C14.9005 1.18059 16.0649 1.92641 17.0694 2.92984L12.1987 7.80052C11.8019 7.40372 11.3251 7.13676 10.8203 6.99964L13.6582 0.692383Z"
    fill="white"
  />
</svg>
