<svg
  width="107"
  height="91"
  viewBox="0 0 107 91"
  fill="none"
  xmlns="http://www.w3.org/2000/svg"
>
<circle cx="69" cy="32" r="32" fill="white" />
<circle cx="69" cy="32" r="15" fill="black" />
<rect
    x="0.5"
    y="8.5"
    width="68"
    height="68"
    rx="4.5"
    fill="black"
    stroke="white"
  />
<path
    fill-rule="evenodd"
    clip-rule="evenodd"
    d="M35.9895 21.2686C35.5171 21.2686 35.1342 21.6515 35.1342 22.1239V52.5599C33.6405 51.4778 31.3276 51.2614 28.7691 52.1749C25.0641 53.4977 22.2469 57.8294 23.1801 60.4432C24.1133 63.0569 27.3031 63.5332 31.0081 62.2103C34.2529 61.0518 36.8168 58.0228 36.7767 55.5324C36.8206 55.4295 36.8449 55.3162 36.8449 55.1972V31.2474C36.8449 31.2474 36.8449 31.2475 36.8449 31.2475V30.917C36.9527 30.8297 37.3964 31.4038 38.4121 32.7181L38.4121 32.7181C39.0077 33.4887 39.8 34.5139 40.8365 35.8094C44.1754 39.9824 44.2579 46.3586 43.4025 49.4949C43.4025 49.4949 42.2618 52.346 43.6876 52.346C44.543 52.346 46.2535 48.0609 45.9686 43.2223C45.7057 38.7583 43.5083 35.5035 41.8265 33.0124C41.6823 32.7987 41.5418 32.5907 41.4067 32.388C40.0619 30.3704 37.5102 24.2147 36.8449 21.8387V30.917C36.8449 30.917 36.8449 30.917 36.8449 30.917V22.1239C36.8449 21.6515 36.4619 21.2686 35.9895 21.2686Z"
    fill="white"
  />
<path
    fill-rule="evenodd"
    clip-rule="evenodd"
    d="M98.6845 56C98.2959 56 97.9808 56.315 97.9808 56.7037V81.7409C96.752 80.8516 94.85 80.674 92.746 81.4252C89.698 82.5134 87.3805 86.0769 88.1482 88.2271C88.9159 90.3773 91.5399 90.7691 94.5879 89.6809C97.2586 88.7273 99.3686 86.2334 99.3334 84.1841C99.3686 84.1003 99.3881 84.0082 99.3881 83.9115V64.2053C99.3885 64.2071 99.3888 64.209 99.3891 64.2108V63.9389C99.4778 63.8671 99.8428 64.3395 100.678 65.4206L100.678 65.4206C101.168 66.0546 101.82 66.8979 102.673 67.9637C105.42 71.3966 105.487 76.642 104.784 79.2221C104.784 79.2221 103.845 81.5676 105.018 81.5676C105.722 81.5676 107.129 78.0424 106.895 74.062C106.679 70.3896 104.871 67.712 103.487 65.6627L103.487 65.6626C103.369 65.4869 103.253 65.3158 103.142 65.1491C102.036 63.4893 99.9364 58.4253 99.3891 56.4707V63.9389C99.3888 63.9392 99.3885 63.9395 99.3881 63.9398V56.7037C99.3881 56.315 99.0731 56 98.6845 56Z"
    fill="white"
  />
<g filter="url(#filter0_d_1137_192)">
<path
      d="M77.2 83.76V76.96H70.68V73.2H77.2V66.36H81.24V73.2H87.8V76.96H81.24V83.76H77.2Z"
      fill="white"
    />
</g>
<defs>
<filter
      id="filter0_d_1137_192"
      x="67.6797"
      y="65.3604"
      width="23.1201"
      height="23.3994"
      filterUnits="userSpaceOnUse"
      color-interpolation-filters="sRGB"
    >
<feFlood flood-opacity="0" result="BackgroundImageFix" />
<feColorMatrix
        in="SourceAlpha"
        type="matrix"
        values="0 0 0 0 0 0 0 0 0 0 0 0 0 0 0 0 0 0 127 0"
        result="hardAlpha"
      />
<feOffset dy="2" />
<feGaussianBlur stdDeviation="1.5" />
<feComposite in2="hardAlpha" operator="out" />
<feColorMatrix type="matrix" values="0 0 0 0 0 0 0 0 0 0 0 0 0 0 0 0 0 0 1 0" />
<feBlend
        mode="normal"
        in2="BackgroundImageFix"
        result="effect1_dropShadow_1137_192"
      />
<feBlend
        mode="normal"
        in="SourceGraphic"
        in2="effect1_dropShadow_1137_192"
        result="shape"
      />
</filter>
</defs>
</svg>
