<svg
  width="287"
  height="42"
  viewBox="0 0 287 42"
  fill="none"
  xmlns="http://www.w3.org/2000/svg"
>
<path
    d="M11.802 33.384H9.94V36.072H8.876V29.744H9.94V32.488H11.802V33.384ZM10.388 41.896H2.128V38.844H8.876V37.64H2.114V36.772H9.94V39.67H3.192V41.014H10.388V41.896ZM6.678 35.652H0.966V30.22H2.03V32.012H5.6V30.22H6.678V35.652ZM5.6 34.77V32.894H2.03V34.77H5.6ZM17.7693 38.704H12.9113V31.088H17.7693V38.704ZM22.8233 41.98H21.7733V35.526H20.2753V41.364H19.2393V30.038H20.2753V34.63H21.7733V29.744H22.8233V41.98ZM16.7193 37.822V31.97H13.9473V37.822H16.7193ZM33.4106 33.076H30.9046V32.18H33.4106V29.744H34.4746V36.058H33.4106V33.076ZM31.5766 34.882L30.9746 35.708C29.7986 35.232 28.6086 34.28 28.0206 32.992C27.6566 34.252 26.4946 35.358 25.0386 36.044L24.3806 35.246C25.9906 34.616 27.4746 33.174 27.4746 31.214V30.164H28.5526V31.172C28.5526 33.16 30.2746 34.448 31.5766 34.882ZM34.9366 41.896H26.5786V38.872H33.4246V37.612H26.5086V36.73H34.4886V39.684H27.6426V41.014H34.9366V41.896ZM46.5458 39.656C46.5458 41.084 45.0618 41.98 42.4298 41.98C39.8118 41.98 38.3418 41.084 38.3418 39.656C38.3418 38.214 39.8118 37.318 42.4298 37.318C45.0618 37.318 46.5458 38.214 46.5458 39.656ZM36.7738 31.662V30.766H43.3958V31.662H40.6378C40.6378 31.9 40.6378 32.18 40.6518 32.32C40.7498 33.986 42.3178 35.316 43.8158 35.764L43.1858 36.618C41.9118 36.114 40.5958 34.966 40.0918 33.86C39.7558 35.008 38.2858 36.478 36.9698 37.052L36.3958 36.198C37.9358 35.61 39.4898 34.056 39.5458 32.32C39.5598 32.18 39.5598 31.886 39.5598 31.662H36.7738ZM42.4298 38.214C40.5538 38.214 39.4198 38.732 39.4198 39.656C39.4198 40.566 40.5538 41.084 42.4298 41.084C44.3478 41.084 45.4538 40.566 45.4538 39.656C45.4538 38.732 44.3478 38.214 42.4298 38.214ZM45.3838 33.818H42.9198V32.922H45.3838V29.744H46.4478V37.346H45.3838V33.818Z"
    fill="white"
  />
<path
    d="M125.802 33.384H123.94V36.072H122.876V29.744H123.94V32.488H125.802V33.384ZM124.388 41.896H116.128V38.844H122.876V37.64H116.114V36.772H123.94V39.67H117.192V41.014H124.388V41.896ZM120.678 35.652H114.966V30.22H116.03V32.012H119.6V30.22H120.678V35.652ZM119.6 34.77V32.894H116.03V34.77H119.6ZM131.769 38.704H126.911V31.088H131.769V38.704ZM136.823 41.98H135.773V35.526H134.275V41.364H133.239V30.038H134.275V34.63H135.773V29.744H136.823V41.98ZM130.719 37.822V31.97H127.947V37.822H130.719ZM148.797 41.98H147.747V35.456H146.109V41.35H145.073V30.038H146.109V34.56H147.747V29.744H148.797V41.98ZM139.921 37.906H140.285C141.517 37.906 143.351 37.822 144.387 37.598L144.485 38.466C143.323 38.69 141.265 38.83 139.669 38.83H138.857V31.242H143.603V32.138H139.921V37.906ZM160.448 41.98H159.384V29.744H160.448V41.98ZM156.85 31.046C156.794 35.022 154.358 38.06 151.194 39.558L150.578 38.718C153.672 37.36 155.492 34.7 155.716 31.942H151.026V31.046H156.85Z"
    fill="white"
  />
<path
    d="M226.578 36.548H215.532V35.652H226.578V36.548ZM225.234 41.812H216.89V37.822H225.234V41.812ZM224.17 40.93V38.69H217.954V40.93H224.17ZM225.332 32.362C225.332 33.748 223.736 34.658 221.048 34.658C218.374 34.658 216.792 33.748 216.792 32.362C216.792 30.976 218.374 30.066 221.048 30.066C223.736 30.066 225.332 30.976 225.332 32.362ZM224.296 32.362C224.296 31.452 223.008 30.92 221.048 30.92C219.088 30.92 217.828 31.452 217.828 32.362C217.828 33.258 219.088 33.804 221.048 33.804C223.008 33.804 224.296 33.258 224.296 32.362ZM234.631 32.586C234.631 33.986 233.273 34.826 231.383 34.826C229.493 34.826 228.107 34 228.107 32.572C228.107 31.2 229.493 30.318 231.383 30.318C233.273 30.318 234.631 31.2 234.631 32.586ZM237.557 39.152H236.493V37.822H233.917V36.982H236.493V29.744H237.557V39.152ZM237.809 41.686H229.059V38.144H230.123V40.79H237.809V41.686ZM233.581 32.586C233.581 31.76 232.699 31.2 231.383 31.2C230.067 31.2 229.171 31.746 229.171 32.586C229.171 33.412 230.067 33.958 231.383 33.958C232.699 33.958 233.581 33.412 233.581 32.586ZM231.999 38.662H230.935V36.436C229.773 36.478 228.555 36.52 227.533 36.52L227.365 35.61C228.625 35.624 230.123 35.61 231.453 35.568C232.811 35.512 234.141 35.386 235.331 35.26L235.415 36.086C234.645 36.198 233.287 36.282 231.999 36.366V38.662ZM250.749 33.384H248.887V36.072H247.823V29.744H248.887V32.488H250.749V33.384ZM249.335 41.896H241.075V38.844H247.823V37.64H241.061V36.772H248.887V39.67H242.139V41.014H249.335V41.896ZM245.625 35.652H239.913V30.22H240.977V32.012H244.547V30.22H245.625V35.652ZM244.547 34.77V32.894H240.977V34.77H244.547ZM256.716 38.704H251.858V31.088H256.716V38.704ZM261.77 41.98H260.72V35.526H259.222V41.364H258.186V30.038H259.222V34.63H260.72V29.744H261.77V41.98ZM255.666 37.822V31.97H252.894V37.822H255.666ZM271.055 37.08C270.173 37.178 268.633 37.346 267.177 37.43C265.805 37.514 264.251 37.57 263.383 37.57L263.215 36.632C264.069 36.646 265.259 36.632 266.463 36.576V35.344C264.923 35.148 263.901 34.182 263.901 32.838C263.901 31.382 265.189 30.29 267.023 30.29C268.871 30.29 270.131 31.382 270.131 32.852C270.131 34.21 269.095 35.162 267.527 35.344V36.534C268.843 36.464 270.229 36.324 270.971 36.226L271.055 37.08ZM274.709 34.826H272.861V38.984H271.783V29.744H272.861V33.93H274.709V34.826ZM269.109 32.838C269.109 31.9 268.311 31.2 267.023 31.2C265.735 31.2 264.965 31.928 264.965 32.838C264.965 33.846 265.735 34.476 267.023 34.476C268.311 34.476 269.109 33.79 269.109 32.838ZM273.183 41.714H265.091V38.368H266.155V40.832H273.183V41.714ZM285.408 37.15H283.434V39.53H286.444V40.426H275.398V39.53H278.478V37.15H276.742V33.426H283.994V31.55H276.784V30.654H285.058V34.308H277.82V36.268H285.408V37.15ZM279.542 37.15V39.53H282.384V37.15H279.542Z"
    fill="white"
  />
<rect x="15" width="18" height="18" rx="9" fill="white" />
<path
    d="M23.586 12.556V5.788L22.206 6.064V5.2L24.294 4.264H25.074V12.556H23.586Z"
    fill="#2D2D2D"
  />
<rect x="130" width="18" height="18" rx="9" fill="white" />
<path
    d="M136.413 12.508V11.644L137.985 9.988C139.125 8.788 140.037 7.768 140.037 6.736C140.037 5.74 139.497 5.356 138.453 5.356C137.877 5.356 137.205 5.632 136.749 5.908L136.509 4.816C137.061 4.492 137.901 4.192 138.849 4.192C140.649 4.192 141.573 5.056 141.573 6.544C141.573 8.008 140.325 9.316 139.317 10.36L138.345 11.356H141.645V12.508H136.413Z"
    fill="#2D2D2D"
  />
<rect x="243" width="18" height="18" rx="9" fill="white" />
<path
    d="M251.615 12.628C250.631 12.628 249.671 12.352 249.203 12.052L249.443 10.984C249.863 11.248 250.751 11.452 251.363 11.452C252.467 11.452 253.115 10.996 253.115 10.072C253.115 9.196 252.455 8.836 251.411 8.824L250.559 8.8V7.732L251.315 7.72C252.263 7.696 252.899 7.264 252.899 6.496C252.899 5.668 252.335 5.368 251.435 5.368C250.823 5.368 250.175 5.572 249.683 5.8L249.515 4.708C250.019 4.42 251.015 4.192 251.819 4.192C253.343 4.192 254.375 4.912 254.375 6.232C254.375 7.216 253.799 7.84 252.899 8.152C253.931 8.356 254.651 8.944 254.651 10.168C254.651 11.68 253.487 12.628 251.615 12.628Z"
    fill="#2D2D2D"
  />
<line x1="33" y1="8.5" x2="130" y2="8.50001" stroke="#C4C4C4" />
<line x1="148" y1="8.5" x2="243" y2="8.50001" stroke="#C4C4C4" />
</svg>
