<svg width="17" height="13" viewBox="0 0 17 13" fill="none" xmlns="http://www.w3.org/2000/svg">
<path d="M13.7071 0.292893C13.3166 -0.0976311 12.6834 -0.0976311 12.2929 0.292893C11.9024 0.683417 11.9024 1.31658 12.2929 1.70711L13.7071 0.292893ZM16 4L16.7071 4.70711C17.0976 4.31658 17.0976 3.68342 16.7071 3.29289L16 4ZM12.2929 6.29289C11.9024 6.68342 11.9024 7.31658 12.2929 7.70711C12.6834 8.09763 13.3166 8.09763 13.7071 7.70711L12.2929 6.29289ZM16 13C16.5523 13 17 12.5523 17 12C17 11.4477 16.5523 11 16 11V13ZM12.2929 1.70711L15.2929 4.70711L16.7071 3.29289L13.7071 0.292893L12.2929 1.70711ZM15.2929 3.29289L12.2929 6.29289L13.7071 7.70711L16.7071 4.70711L15.2929 3.29289ZM16 3H5V5H16V3ZM0 8C0 10.7614 2.23858 13 5 13V11C3.34315 11 2 9.65685 2 8H0ZM5 3C2.23858 3 0 5.23858 0 8H2C2 6.34315 3.34315 5 5 5V3ZM16 11H5V13H16V11Z" fill="#F7F7F7"/>
</svg>
