<svg
  width="32"
  height="28"
  viewBox="0 0 32 28"
  fill="none"
  xmlns="http://www.w3.org/2000/svg"
>
<path
    d="M31.6628 9.6131C31.8445 10.0798 31.4811 10.4531 31.2995 10.6397C30.7545 11.1997 29.2103 12.693 29.2103 12.693L28.2111 13.813L26.3036 15.6796C25.6677 16.3329 24.6685 15.7729 24.7594 14.933C24.7594 14.5596 24.8502 14.1863 24.8502 13.813C24.8502 12.133 24.396 10.5464 23.5785 9.23977C21.9435 6.53317 19.0368 4.66655 15.6759 4.66655C12.4967 4.66655 9.68082 6.25318 8.04579 8.77312C7.86412 9.05311 7.59162 9.23977 7.31912 9.23977C6.59244 9.23977 5.13908 9.23977 4.04907 9.23977C3.41323 9.23977 2.95905 8.49312 3.23156 7.93314C5.41159 3.26659 10.135 0 15.5851 0C21.3077 0 26.2127 3.54658 28.3019 8.58645C28.4836 8.95978 28.7561 9.14644 29.1194 9.14644C29.1194 9.14644 30.5728 9.14644 31.027 9.14644C31.2086 9.23977 31.572 9.23977 31.6628 9.6131Z"
    fill="#008BFF"
  />
<path
    d="M0.0495126 18.2936C-0.132157 17.8269 0.231182 17.4536 0.412851 17.2669C0.957859 16.707 2.50205 15.2137 2.50205 15.2137L3.59206 14.0937L5.49959 12.2271C6.13544 11.5738 7.13462 12.1337 7.04378 12.9737C7.04378 13.347 6.95295 13.7204 6.95295 14.0937V14.187C6.95295 15.867 7.40712 17.4536 8.22463 18.7602C9.85966 21.4668 12.7664 23.3335 16.1272 23.3335C19.3065 23.3335 22.1223 21.7468 23.7574 19.2269C23.939 18.9469 24.2115 18.7602 24.484 18.7602C25.2107 18.7602 26.6641 18.7602 27.7541 18.7602C28.3899 18.7602 28.8441 19.5069 28.5716 20.0669C26.3916 24.7334 21.6682 28 16.2181 28C10.4955 28 5.59043 24.4534 3.50123 19.4136C3.31956 19.0402 3.04706 18.8536 2.68372 18.8536C2.68372 18.8536 1.23036 18.8536 0.77619 18.8536C0.503686 18.7602 0.140347 18.7602 0.0495126 18.2936Z"
    fill="#008BFF"
  />
<path
    d="M16.2527 19.0992C18.4367 19.0992 19.7947 17.9932 19.7947 16.2292C19.7947 14.8012 18.9547 14.1152 17.7507 13.8772C18.8007 13.5132 19.4727 12.7852 19.4727 11.6372C19.4727 10.0972 18.2687 9.2572 16.4907 9.2572C15.5527 9.2572 14.3907 9.5232 13.8027 9.8592L13.9987 11.1332C14.5727 10.8672 15.3287 10.6292 16.0427 10.6292C17.0927 10.6292 17.7507 10.9792 17.7507 11.9452C17.7507 12.8412 17.0087 13.3452 15.9027 13.3732L15.0207 13.3872V14.6332L16.0147 14.6612C17.2327 14.6752 18.0027 15.0952 18.0027 16.1172C18.0027 17.1952 17.2467 17.7272 15.9587 17.7272C15.2447 17.7272 14.2087 17.4892 13.7187 17.1812L13.4387 18.4272C13.9847 18.7772 15.1047 19.0992 16.2527 19.0992Z"
    fill="white"
  />
</svg>
