<svg width="32" height="28" viewBox="0 0 32 28" fill="none" xmlns="http://www.w3.org/2000/svg">
<path d="M31.9507 9.6131C32.1341 10.0798 31.7674 10.4531 31.5841 10.6397C31.0341 11.1997 29.4759 12.693 29.4759 12.693L28.4676 13.813L26.5428 15.6796C25.9012 16.3329 24.8929 15.7729 24.9846 14.933C24.9846 14.5596 25.0762 14.1863 25.0762 13.813C25.0762 12.133 24.6179 10.5464 23.793 9.23977C22.1431 6.53317 19.21 4.66655 15.8185 4.66655C12.6104 4.66655 9.76897 6.25318 8.11909 8.77312C7.93577 9.05311 7.66079 9.23977 7.38581 9.23977C6.65252 9.23977 5.18596 9.23977 4.08604 9.23977C3.44442 9.23977 2.98612 8.49312 3.2611 7.93314C5.46094 3.26659 10.2273 0 15.7269 0C21.5015 0 26.4511 3.54658 28.5593 8.58645C28.7426 8.95978 29.0176 9.14644 29.3842 9.14644C29.3842 9.14644 30.8508 9.14644 31.3091 9.14644C31.4924 9.23977 31.8591 9.23977 31.9507 9.6131Z" fill="#008BFF"/>
<path d="M0.0499626 18.2936C-0.133358 17.8269 0.233283 17.4536 0.416603 17.2669C0.966564 16.707 2.52479 15.2137 2.52479 15.2137L3.62471 14.0937L5.54957 12.2271C6.1912 11.5738 7.19946 12.1337 7.1078 12.9737C7.1078 13.347 7.01614 13.7204 7.01614 14.0937V14.187C7.01614 15.867 7.47444 17.4536 8.29938 18.7602C9.94926 21.4668 12.8824 23.3335 16.2738 23.3335C19.4819 23.3335 22.3234 21.7468 23.9733 19.2269C24.1566 18.9469 24.4316 18.7602 24.7066 18.7602C25.4398 18.7602 26.9064 18.7602 28.0063 18.7602C28.6479 18.7602 29.1062 19.5069 28.8313 20.0669C26.6314 24.7334 21.8651 28 16.3655 28C10.5909 28 5.64123 24.4534 3.53305 19.4136C3.34973 19.0402 3.07475 18.8536 2.70811 18.8536C2.70811 18.8536 1.24155 18.8536 0.783244 18.8536C0.508264 18.7602 0.141623 18.7602 0.0499626 18.2936Z" fill="#008BFF"/>
<path d="M12.7944 18.9592H18.8984V17.6152H15.0484L16.1824 16.4532C17.3584 15.2352 18.8144 13.7092 18.8144 12.0012C18.8144 10.2652 17.7364 9.2572 15.6364 9.2572C14.5304 9.2572 13.5504 9.6072 12.9064 9.9852L13.1864 11.2592C13.7184 10.9372 14.5024 10.6152 15.1744 10.6152C16.3924 10.6152 17.0224 11.0632 17.0224 12.2252C17.0224 13.4292 15.9584 14.6192 14.6284 16.0192L12.7944 17.9512V18.9592Z" fill="white"/>
</svg>
