<svg
  width="32"
  height="28"
  viewBox="0 0 32 28"
  fill="none"
  xmlns="http://www.w3.org/2000/svg"
>
<path
    d="M31.9518 9.61316C32.1352 10.0798 31.7685 10.4531 31.5852 10.6398C31.0352 11.1998 29.4769 12.6931 29.4769 12.6931L28.4685 13.8131L26.5436 15.6797C25.9019 16.333 24.8936 15.773 24.9853 14.9331C24.9853 14.5597 25.0769 14.1864 25.0769 13.8131C25.0769 12.1331 24.6186 10.5465 23.7936 9.23983C22.1436 6.53322 19.2104 4.66658 15.8187 4.66658C12.6105 4.66658 9.76884 6.25322 8.11887 8.77318C7.93554 9.05317 7.66054 9.23983 7.38555 9.23983C6.65223 9.23983 5.18558 9.23983 4.0856 9.23983C3.44394 9.23983 2.98562 8.49318 3.26061 7.93319C5.46058 3.26661 10.2272 0 15.7271 0C21.502 0 26.4519 3.5466 28.5602 8.58651C28.7435 8.95984 29.0185 9.1465 29.3852 9.1465C29.3852 9.1465 30.8518 9.1465 31.3102 9.1465C31.4935 9.23983 31.8602 9.23983 31.9518 9.61316Z"
    fill="white"
  />
<path
    d="M0.0499653 18.2936C-0.133365 17.827 0.233296 17.4536 0.416626 17.267C0.966617 16.707 2.52493 15.2137 2.52493 15.2137L3.62491 14.0937L5.54988 12.2271C6.19153 11.5737 7.19985 12.1337 7.10819 12.9737C7.10819 13.3471 7.01652 13.7204 7.01652 14.0937V14.187C7.01652 15.867 7.47485 17.4536 8.29983 18.7603C9.94981 21.4669 12.8831 23.3335 16.2747 23.3335C19.483 23.3335 22.3246 21.7469 23.9746 19.2269C24.1579 18.9469 24.4329 18.7603 24.7079 18.7603C25.4412 18.7603 26.9079 18.7603 28.0079 18.7603C28.6495 18.7603 29.1078 19.5069 28.8328 20.0669C26.6329 24.7335 21.8663 28.0001 16.3664 28.0001C10.5915 28.0001 5.64154 24.4535 3.53324 19.4136C3.34991 19.0403 3.07492 18.8536 2.70826 18.8536C2.70826 18.8536 1.24161 18.8536 0.783287 18.8536C0.508291 18.7603 0.141631 18.7603 0.0499653 18.2936Z"
    fill="white"
  />
</svg>
