<svg
  width="29"
  height="25"
  viewBox="0 0 29 25"
  fill="none"
  xmlns="http://www.w3.org/2000/svg"
>
<path
    d="M1.11344 20.2312C0.493454 20.2312 0 19.7261 0 19.0916C0 18.457 0.493454 17.952 1.11344 17.952C3.9603 17.952 6.08595 17.5505 7.7308 16.8901C9.33769 16.2555 10.527 15.362 11.514 14.3519C11.9568 13.9116 12.6654 13.9245 13.0955 14.3648C13.5257 14.8181 13.5131 15.5433 13.0829 15.9836C11.8935 17.175 10.4764 18.2498 8.54058 19.0139C6.63002 19.7779 4.25131 20.2312 1.11344 20.2312ZM17.562 10.674C17.1318 11.1273 16.4232 11.1143 15.993 10.674C15.5502 10.2337 15.5628 9.50855 15.993 9.06825C17.1824 7.85094 18.5868 6.77609 20.4974 5.99909C20.5353 5.98614 20.5606 5.97319 20.5986 5.96024C21.9145 5.44224 23.4455 5.06669 25.3054 4.88539L22.4459 1.94574C22.003 1.50544 22.003 0.780238 22.4459 0.339938C22.8761 -0.113313 23.5846 -0.113313 24.0148 0.339938L28.671 5.09259V5.10554L28.6963 5.11849L28.709 5.14439C28.7343 5.17029 28.7469 5.18324 28.7722 5.20914L28.7849 5.22209V5.23504L28.8229 5.27389V5.28684L28.8355 5.29979L28.8482 5.32569L28.8608 5.33864V5.35159L28.8735 5.36454V5.37749L28.8861 5.40339C28.962 5.55879 29 5.72714 29 5.90844C29 6.08974 28.962 6.25809 28.8861 6.41349L28.8735 6.43939V6.45234L28.8608 6.46529V6.47824L28.8482 6.49119L28.8355 6.51709L28.8229 6.53004V6.54299L28.7849 6.58184V6.59479L28.7722 6.60774C28.7469 6.63364 28.7343 6.64659 28.709 6.67249L28.6963 6.69839L28.671 6.71134V6.72429H28.6584C28.6457 6.75019 28.6331 6.76314 28.6204 6.77609L24.0148 11.4899C23.5846 11.9302 22.8761 11.9432 22.4459 11.4899C22.0157 11.0496 22.003 10.3244 22.4459 9.8841L25.0524 7.20344C23.6099 7.37179 22.4206 7.68259 21.4084 8.08404C21.3831 8.097 21.3578 8.10995 21.3198 8.1229C19.7256 8.7704 18.5489 9.6769 17.562 10.674ZM1.11344 7.04804C0.493454 7.04804 0 6.54299 0 5.90844C0 5.27389 0.493454 4.76884 1.11344 4.76884C9.95768 4.76884 12.716 8.29125 15.4616 11.8137C17.524 14.4684 19.599 17.1102 25.0397 17.7836L22.4459 15.1159C22.003 14.6756 22.0157 13.9504 22.4459 13.5101C22.8761 13.0569 23.5846 13.0698 24.0148 13.5101L28.6204 18.2239C28.6331 18.2369 28.6457 18.2498 28.6584 18.2757H28.671V18.2887L28.6963 18.3016L28.709 18.3275C28.7343 18.3534 28.7469 18.3664 28.7722 18.3923L28.7849 18.4052V18.4182L28.8229 18.457V18.47L28.8355 18.4829L28.8482 18.5088L28.8608 18.5218V18.5347L28.8735 18.5477V18.5606L28.8861 18.5865C28.962 18.7419 29 18.9103 29 19.0916C29 19.2729 28.962 19.4412 28.8861 19.5966L28.8735 19.6225V19.6355L28.8608 19.6484V19.6614L28.8482 19.6743L28.8355 19.7002L28.8229 19.7132V19.7261L28.7849 19.765V19.7779L28.7722 19.7909C28.7469 19.8168 28.7343 19.8297 28.709 19.8556L28.6963 19.8815L28.671 19.8945V19.9074L24.0148 24.6601C23.5846 25.1133 22.8761 25.1133 22.4459 24.6601C22.003 24.2198 22.003 23.4946 22.4459 23.0543L25.3054 20.1146C18.5995 19.493 16.1575 16.3721 13.7155 13.2381C11.3115 10.1431 8.89485 7.04804 1.11344 7.04804Z"
    fill="white"
  />
</svg>
