<svg
  width="45.000000"
  height="45.000000"
  viewBox="0 0 45 45"
  fill="none"
  xmlns="http://www.w3.org/2000/svg"
  xmlns:xlink="http://www.w3.org/1999/xlink"
>
	<desc>
			Created with Pixso.
	</desc>
	<defs />
	<circle
    id="Ellipse 144"
    cx="22.500000"
    cy="22.500000"
    r="22.000000"
    stroke="#FFFFFF"
    stroke-opacity="1.000000"
    stroke-width="1.000000"
  />
	<path
    id="Vector"
    d="M18.17 16.18L18.75 15.84L18.55 15.51L18.17 15.51L18.17 16.18ZM24.81 27.49L24.23 27.83L24.42 28.16L24.81 28.16L24.81 27.49ZM35.42 27.49L28.73 23.61L28.73 31.37L35.42 27.49ZM12 16.85L18.17 16.85L18.17 15.51L12 15.51L12 16.85ZM17.59 16.52L24.23 27.83L25.38 27.15L18.75 15.84L17.59 16.52ZM24.81 28.16L29.4 28.16L29.4 26.82L24.81 26.82L24.81 28.16Z"
    fill="#FFFFFF"
    fill-opacity="1.000000"
    fill-rule="nonzero"
  />
	<path
    id="Vector"
    d="M18.35 28.28L18.93 28.62L18.74 28.95L18.35 28.95L18.35 28.28ZM24.62 17.56L24.04 17.22L24.24 16.89L24.62 16.89L24.62 17.56ZM35.13 17.56L28.43 21.44L28.43 13.68L35.13 17.56ZM12 27.6L18.35 27.6L18.35 28.95L12 28.95L12 27.6ZM17.78 27.93L24.04 17.22L25.2 17.9L18.93 28.62L17.78 27.93ZM24.62 16.89L29.1 16.89L29.1 18.23L24.62 18.23L24.62 16.89Z"
    fill="#FFFFFF"
    fill-opacity="1.000000"
    fill-rule="nonzero"
  />
</svg>
