<svg
  width="30"
  height="30"
  viewBox="0 0 30 30"
  fill="none"
  xmlns="http://www.w3.org/2000/svg"
>
<path
    fill-rule="evenodd"
    clip-rule="evenodd"
    d="M24.3545 8.62966C24.3545 10.6343 22.7295 12.2593 20.7249 12.2593C19.4803 12.2593 18.3821 11.633 17.7282 10.6783L12.0353 13.8237C12.1802 14.2157 12.2593 14.6397 12.2593 15.0821C12.2593 15.6503 12.1287 16.1881 11.896 16.6669L17.652 19.6025C18.2947 18.583 19.4307 17.9056 20.7249 17.9056C22.7295 17.9056 24.3545 19.5307 24.3545 21.5353C24.3545 23.5399 22.7295 25.165 20.7249 25.165C18.7202 25.165 17.0952 23.5399 17.0952 21.5353C17.0952 21.1811 17.1459 20.8388 17.2405 20.5152L11.3341 17.5029C10.6695 18.2449 9.70412 18.7117 8.62966 18.7117C6.62506 18.7117 5 17.0867 5 15.0821C5 13.0775 6.62506 11.4524 8.62966 11.4524C9.8343 11.4524 10.9019 12.0392 11.5621 12.9426L17.2821 9.78237C17.1609 9.42021 17.0952 9.03261 17.0952 8.62966C17.0952 6.62506 18.7202 5 20.7249 5C22.7295 5 24.3545 6.62506 24.3545 8.62966ZM8.62893 16.2921C9.29713 16.2921 9.83881 15.7504 9.83881 15.0822C9.83881 14.414 9.29713 13.8723 8.62893 13.8723C7.96072 13.8723 7.41904 14.414 7.41904 15.0822C7.41904 15.7504 7.96072 16.2921 8.62893 16.2921ZM21.9374 8.62977C21.9374 9.29798 21.3957 9.83966 20.7275 9.83966C20.0593 9.83966 19.5176 9.29798 19.5176 8.62977C19.5176 7.96157 20.0593 7.41989 20.7275 7.41989C21.3957 7.41989 21.9374 7.96157 21.9374 8.62977ZM20.7275 22.7449C21.3957 22.7449 21.9374 22.2032 21.9374 21.535C21.9374 20.8668 21.3957 20.3251 20.7275 20.3251C20.0593 20.3251 19.5176 20.8668 19.5176 21.535C19.5176 22.2032 20.0593 22.7449 20.7275 22.7449Z"
    fill="#C4C4C4"
  />
</svg>
