<svg width="18" height="20" viewBox="0 0 18 20" fill="none" xmlns="http://www.w3.org/2000/svg">
<path d="M1.60484 15.2295L10.6208 4.74403L13.679 7.36114L4.66299 17.8466L1.60484 15.2295Z" fill="#C3C3C3"/>
<path d="M15.2914 5.40016C15.2111 5.33324 12.2333 2.78305 12.2333 2.78305C12.2333 2.78305 14.0486 0.654789 14.1825 0.49164C14.5241 0.158014 15.0463 0.18096 15.4411 0.441301C15.5884 0.426644 16.9602 1.63849 17.1208 1.77232C17.5223 2.10691 17.5086 2.78245 17.1737 3.19032C16.9058 3.51662 15.4924 5.15544 15.2914 5.40016Z" fill="#C3C3C3"/>
<path d="M1.21832 15.7909L4.27646 18.408C3.84126 18.5263 0.660858 19.5169 0.660858 19.5169L1.21832 15.7909Z" fill="#C3C3C3"/>
<path d="M14.2213 6.72637L14.8033 6.04587L11.7339 3.37958L11.1518 4.06009L14.2213 6.72637Z" fill="#C3C3C3"/>
</svg>
