<svg
  width="35"
  height="34"
  viewBox="0 0 35 34"
  fill="none"
  xmlns="http://www.w3.org/2000/svg"
>
<path
    d="M15.5397 2.9588C16.1491 1.73978 17.8887 1.73978 18.4982 2.9588L22.2892 10.5416C22.5365 11.0362 23.0146 11.3745 23.5633 11.4431L30.8916 12.3593C32.2141 12.5246 32.8079 14.1062 31.9208 15.101L26.7644 20.8838C26.4302 21.2586 26.2844 21.7648 26.368 22.2599L27.8087 30.7888C28.0341 32.1232 26.6487 33.1487 25.4383 32.5435L17.7586 28.7032C17.293 28.4704 16.7449 28.4704 16.2792 28.7032L8.60484 32.5408C7.39341 33.1466 6.00731 32.119 6.23485 30.7838L7.68707 22.2624C7.77168 21.7659 7.62544 21.2579 7.28979 20.8824L2.12289 15.1019C1.23408 14.1075 1.82739 12.5241 3.15078 12.3587L10.4745 11.4431C11.0232 11.3745 11.5014 11.0362 11.7486 10.5416L15.5397 2.9588Z"
    fill="#008BFF"
  />
</svg>
