<svg
  width="35"
  height="34"
  viewBox="0 0 35 34"
  fill="none"
  xmlns="http://www.w3.org/2000/svg"
>
<path
    d="M17.7585 3.32858L21.5496 10.9114C21.9205 11.6533 22.6377 12.1608 23.4607 12.2637L30.7891 13.1798C31.4503 13.2625 31.7472 14.0533 31.3037 14.5506L26.1472 20.3335C25.646 20.8956 25.4272 21.655 25.5527 22.3976L26.9933 30.9265C27.106 31.5938 26.4133 32.1065 25.8081 31.8039L18.1284 27.9636C17.43 27.6144 16.6079 27.6144 15.9094 27.9636L8.235 31.8012C7.62929 32.1041 6.93624 31.5903 7.05001 30.9227L8.50222 22.4013C8.62914 21.6566 8.40978 20.8946 7.90631 20.3313L2.73941 14.5508C2.29501 14.0536 2.59166 13.2619 3.25335 13.1792L10.5771 12.2637C11.4002 12.1608 12.1173 11.6533 12.4883 10.9114L16.2793 3.32858C16.584 2.71907 17.4538 2.71906 17.7585 3.32858Z"
    stroke="#C4C4C4"
    stroke-width="1.65382"
  />
</svg>
