<svg
  width="247"
  height="114"
  viewBox="0 0 247 114"
  fill="none"
  xmlns="http://www.w3.org/2000/svg"
>
<path
    d="M27.7433 34.7951C28.4264 34.7951 28.9802 34.2413 28.9802 33.5582C28.9802 32.8751 28.4264 32.3213 27.7433 32.3213C27.0601 32.3213 26.5063 32.8751 26.5063 33.5582C26.5063 34.2413 27.0601 34.7951 27.7433 34.7951Z"
    fill="#FFFFFE"
  />
<path
    d="M31.9381 34.7951C32.6212 34.7951 33.175 34.2413 33.175 33.5582C33.175 32.8751 32.6212 32.3213 31.9381 32.3213C31.255 32.3213 30.7012 32.8751 30.7012 33.5582C30.7012 34.2413 31.255 34.7951 31.9381 34.7951Z"
    fill="#FFFFFE"
  />
<path
    d="M31.9381 31.1916C32.6212 31.1916 33.175 30.6378 33.175 29.9547C33.175 29.2716 32.6212 28.7178 31.9381 28.7178C31.255 28.7178 30.7012 29.2716 30.7012 29.9547C30.7012 30.6378 31.255 31.1916 31.9381 31.1916Z"
    fill="#FFFFFE"
  />
<path
    d="M31.9381 27.5881C32.6212 27.5881 33.175 27.0343 33.175 26.3512C33.175 25.668 32.6212 25.1143 31.9381 25.1143C31.255 25.1143 30.7012 25.668 30.7012 26.3512C30.7012 27.0343 31.255 27.5881 31.9381 27.5881Z"
    fill="#FFFFFE"
  />
<path
    d="M31.9381 24.0393C32.6212 24.0393 33.175 23.4855 33.175 22.8024C33.175 22.1192 32.6212 21.5654 31.9381 21.5654C31.255 21.5654 30.7012 22.1192 30.7012 22.8024C30.7012 23.4855 31.255 24.0393 31.9381 24.0393Z"
    fill="#FFFFFE"
  />
<path
    d="M31.9381 20.4357C32.6212 20.4357 33.175 19.8819 33.175 19.1988C33.175 18.5157 32.6212 17.9619 31.9381 17.9619C31.255 17.9619 30.7012 18.5157 30.7012 19.1988C30.7012 19.8819 31.255 20.4357 31.9381 20.4357Z"
    fill="#FFFFFE"
  />
<path
    d="M48.6632 34.7951C49.3463 34.7951 49.9001 34.2413 49.9001 33.5582C49.9001 32.8751 49.3463 32.3213 48.6632 32.3213C47.9801 32.3213 47.4263 32.8751 47.4263 33.5582C47.4263 34.2413 47.9801 34.7951 48.6632 34.7951Z"
    fill="#FFFFFE"
  />
<path
    d="M48.6632 31.1926C49.3463 31.1926 49.9001 30.6388 49.9001 29.9557C49.9001 29.2725 49.3463 28.7188 48.6632 28.7188C47.9801 28.7188 47.4263 29.2725 47.4263 29.9557C47.4263 30.6388 47.9801 31.1926 48.6632 31.1926Z"
    fill="#FFFFFE"
  />
<path
    d="M48.6632 27.5891C49.3463 27.5891 49.9001 27.0353 49.9001 26.3522C49.9001 25.669 49.3463 25.1152 48.6632 25.1152C47.9801 25.1152 47.4263 25.669 47.4263 26.3522C47.4263 27.0353 47.9801 27.5891 48.6632 27.5891Z"
    fill="#FFFFFE"
  />
<path
    d="M57.1065 34.7951C57.7897 34.7951 58.3435 34.2413 58.3435 33.5582C58.3435 32.8751 57.7897 32.3213 57.1065 32.3213C56.4234 32.3213 55.8696 32.8751 55.8696 33.5582C55.8696 34.2413 56.4234 34.7951 57.1065 34.7951Z"
    fill="#FFFFFE"
  />
<path
    d="M57.1065 31.1926C57.7897 31.1926 58.3435 30.6388 58.3435 29.9557C58.3435 29.2725 57.7897 28.7188 57.1065 28.7188C56.4234 28.7188 55.8696 29.2725 55.8696 29.9557C55.8696 30.6388 56.4234 31.1926 57.1065 31.1926Z"
    fill="#FFFFFE"
  />
<path
    d="M57.1065 27.5891C57.7897 27.5891 58.3435 27.0353 58.3435 26.3522C58.3435 25.669 57.7897 25.1152 57.1065 25.1152C56.4234 25.1152 55.8696 25.669 55.8696 26.3522C55.8696 27.0353 56.4234 27.5891 57.1065 27.5891Z"
    fill="#FFFFFE"
  />
<path
    d="M44.4684 34.7951C45.1515 34.7951 45.7053 34.2413 45.7053 33.5582C45.7053 32.8751 45.1515 32.3213 44.4684 32.3213C43.7852 32.3213 43.2314 32.8751 43.2314 33.5582C43.2314 34.2413 43.7852 34.7951 44.4684 34.7951Z"
    fill="#FFFFFE"
  />
<path
    d="M44.4684 31.1926C45.1515 31.1926 45.7053 30.6388 45.7053 29.9557C45.7053 29.2725 45.1515 28.7188 44.4684 28.7188C43.7852 28.7188 43.2314 29.2725 43.2314 29.9557C43.2314 30.6388 43.7852 31.1926 44.4684 31.1926Z"
    fill="#FFFFFE"
  />
<path
    d="M44.4684 27.5891C45.1515 27.5891 45.7053 27.0353 45.7053 26.3521C45.7053 25.669 45.1515 25.1152 44.4684 25.1152C43.7852 25.1152 43.2314 25.669 43.2314 26.3521C43.2314 27.0353 43.7852 27.5891 44.4684 27.5891Z"
    fill="#FFFFFE"
  />
<path
    d="M44.4684 24.0393C45.1515 24.0393 45.7053 23.4855 45.7053 22.8024C45.7053 22.1192 45.1515 21.5654 44.4684 21.5654C43.7852 21.5654 43.2314 22.1192 43.2314 22.8024C43.2314 23.4855 43.7852 24.0393 44.4684 24.0393Z"
    fill="#FFFFFE"
  />
<path
    d="M44.4684 20.4367C45.1515 20.4367 45.7053 19.8829 45.7053 19.1998C45.7053 18.5167 45.1515 17.9629 44.4684 17.9629C43.7852 17.9629 43.2314 18.5167 43.2314 19.1998C43.2314 19.8829 43.7852 20.4367 44.4684 20.4367Z"
    fill="#FFFFFE"
  />
<path
    d="M44.4684 16.8332C45.1515 16.8332 45.7053 16.2794 45.7053 15.5963C45.7053 14.9132 45.1515 14.3594 44.4684 14.3594C43.7852 14.3594 43.2314 14.9132 43.2314 15.5963C43.2314 16.2794 43.7852 16.8332 44.4684 16.8332Z"
    fill="#FFFFFE"
  />
<path
    d="M44.4684 13.2297C45.1515 13.2297 45.7053 12.6759 45.7053 11.9928C45.7053 11.3096 45.1515 10.7559 44.4684 10.7559C43.7852 10.7559 43.2314 11.3096 43.2314 11.9928C43.2314 12.6759 43.7852 13.2297 44.4684 13.2297Z"
    fill="#FFFFFE"
  />
<path
    d="M44.4684 9.62717C45.1515 9.62717 45.7053 9.07338 45.7053 8.39024C45.7053 7.70711 45.1515 7.15332 44.4684 7.15332C43.7852 7.15332 43.2314 7.70711 43.2314 8.39024C43.2314 9.07338 43.7852 9.62717 44.4684 9.62717Z"
    fill="#FFFFFE"
  />
<path
    d="M44.4684 6.07733C45.1515 6.07733 45.7053 5.52355 45.7053 4.84042C45.7053 4.1573 45.1515 3.60352 44.4684 3.60352C43.7852 3.60352 43.2314 4.1573 43.2314 4.84042C43.2314 5.52355 43.7852 6.07733 44.4684 6.07733Z"
    fill="#FFFFFE"
  />
<path
    d="M82.2213 34.7951C82.9044 34.7951 83.4582 34.2413 83.4582 33.5582C83.4582 32.8751 82.9044 32.3213 82.2213 32.3213C81.5382 32.3213 80.9844 32.8751 80.9844 33.5582C80.9844 34.2413 81.5382 34.7951 82.2213 34.7951Z"
    fill="#FFFFFE"
  />
<path
    d="M78.0804 34.7951C78.7636 34.7951 79.3173 34.2413 79.3173 33.5582C79.3173 32.8751 78.7636 32.3213 78.0804 32.3213C77.3973 32.3213 76.8435 32.8751 76.8435 33.5582C76.8435 34.2413 77.3973 34.7951 78.0804 34.7951Z"
    fill="#FFFFFE"
  />
<path
    d="M78.0804 31.1916C78.7636 31.1916 79.3173 30.6378 79.3173 29.9547C79.3173 29.2716 78.7636 28.7178 78.0804 28.7178C77.3973 28.7178 76.8435 29.2716 76.8435 29.9547C76.8435 30.6378 77.3973 31.1916 78.0804 31.1916Z"
    fill="#FFFFFE"
  />
<path
    d="M78.0804 27.5891C78.7636 27.5891 79.3173 27.0353 79.3173 26.3522C79.3173 25.669 78.7636 25.1152 78.0804 25.1152C77.3973 25.1152 76.8435 25.669 76.8435 26.3522C76.8435 27.0353 77.3973 27.5891 78.0804 27.5891Z"
    fill="#FFFFFE"
  />
<path
    d="M78.0804 24.0393C78.7636 24.0393 79.3173 23.4855 79.3173 22.8024C79.3173 22.1192 78.7636 21.5654 78.0804 21.5654C77.3973 21.5654 76.8435 22.1192 76.8435 22.8024C76.8435 23.4855 77.3973 24.0393 78.0804 24.0393Z"
    fill="#FFFFFE"
  />
<path
    d="M90.6109 34.7951C91.2941 34.7951 91.8479 34.2413 91.8479 33.5582C91.8479 32.8751 91.2941 32.3213 90.6109 32.3213C89.9278 32.3213 89.374 32.8751 89.374 33.5582C89.374 34.2413 89.9278 34.7951 90.6109 34.7951Z"
    fill="#FFFFFE"
  />
<path
    d="M90.6109 31.1926C91.2941 31.1926 91.8479 30.6388 91.8479 29.9557C91.8479 29.2725 91.2941 28.7188 90.6109 28.7188C89.9278 28.7188 89.374 29.2725 89.374 29.9557C89.374 30.6388 89.9278 31.1926 90.6109 31.1926Z"
    fill="#FFFFFE"
  />
<path
    d="M90.6109 27.5891C91.2941 27.5891 91.8478 27.0353 91.8478 26.3522C91.8478 25.669 91.2941 25.1152 90.6109 25.1152C89.9278 25.1152 89.374 25.669 89.374 26.3522C89.374 27.0353 89.9278 27.5891 90.6109 27.5891Z"
    fill="#FFFFFE"
  />
<path
    d="M86.4698 34.7951C87.153 34.7951 87.7067 34.2413 87.7067 33.5582C87.7067 32.8751 87.153 32.3213 86.4698 32.3213C85.7867 32.3213 85.2329 32.8751 85.2329 33.5582C85.2329 34.2413 85.7867 34.7951 86.4698 34.7951Z"
    fill="#FFFFFE"
  />
<path
    d="M86.4698 31.1926C87.153 31.1926 87.7067 30.6388 87.7067 29.9557C87.7067 29.2725 87.153 28.7188 86.4698 28.7188C85.7867 28.7188 85.2329 29.2725 85.2329 29.9557C85.2329 30.6388 85.7867 31.1926 86.4698 31.1926Z"
    fill="#FFFFFE"
  />
<path
    d="M86.4698 27.5891C87.153 27.5891 87.7067 27.0353 87.7067 26.3522C87.7067 25.669 87.153 25.1152 86.4698 25.1152C85.7867 25.1152 85.2329 25.669 85.2329 26.3522C85.2329 27.0353 85.7867 27.5891 86.4698 27.5891Z"
    fill="#FFFFFE"
  />
<path
    d="M86.4698 24.0392C87.153 24.0392 87.7067 23.4855 87.7067 22.8023C87.7067 22.1192 87.153 21.5654 86.4698 21.5654C85.7867 21.5654 85.2329 22.1192 85.2329 22.8023C85.2329 23.4855 85.7867 24.0392 86.4698 24.0392Z"
    fill="#FFFFFE"
  />
<path
    d="M86.4698 20.4367C87.153 20.4367 87.7067 19.8829 87.7067 19.1998C87.7067 18.5167 87.153 17.9629 86.4698 17.9629C85.7867 17.9629 85.2329 18.5167 85.2329 19.1998C85.2329 19.8829 85.7867 20.4367 86.4698 20.4367Z"
    fill="#FFFFFE"
  />
<path
    d="M86.4698 16.8332C87.1529 16.8332 87.7067 16.2794 87.7067 15.5963C87.7067 14.9132 87.1529 14.3594 86.4698 14.3594C85.7867 14.3594 85.2329 14.9132 85.2329 15.5963C85.2329 16.2794 85.7867 16.8332 86.4698 16.8332Z"
    fill="#FFFFFE"
  />
<path
    d="M94.8055 34.7951C95.4887 34.7951 96.0424 34.2413 96.0424 33.5582C96.0424 32.8751 95.4887 32.3213 94.8055 32.3213C94.1224 32.3213 93.5686 32.8751 93.5686 33.5582C93.5686 34.2413 94.1224 34.7951 94.8055 34.7951Z"
    fill="#FFFFFE"
  />
<path
    d="M94.8055 31.1916C95.4887 31.1916 96.0424 30.6378 96.0424 29.9547C96.0424 29.2716 95.4887 28.7178 94.8055 28.7178C94.1224 28.7178 93.5686 29.2716 93.5686 29.9547C93.5686 30.6378 94.1224 31.1916 94.8055 31.1916Z"
    fill="#FFFFFE"
  />
<path
    d="M94.8055 27.5891C95.4887 27.5891 96.0424 27.0353 96.0424 26.3521C96.0424 25.669 95.4887 25.1152 94.8055 25.1152C94.1224 25.1152 93.5686 25.669 93.5686 26.3521C93.5686 27.0353 94.1224 27.5891 94.8055 27.5891Z"
    fill="#FFFFFE"
  />
<path
    d="M94.8055 24.0393C95.4887 24.0393 96.0424 23.4855 96.0424 22.8024C96.0424 22.1192 95.4887 21.5654 94.8055 21.5654C94.1224 21.5654 93.5686 22.1192 93.5686 22.8024C93.5686 23.4855 94.1224 24.0393 94.8055 24.0393Z"
    fill="#FFFFFE"
  />
<path
    d="M94.8055 20.4357C95.4887 20.4357 96.0424 19.8819 96.0424 19.1988C96.0424 18.5157 95.4887 17.9619 94.8055 17.9619C94.1224 17.9619 93.5686 18.5157 93.5686 19.1988C93.5686 19.8819 94.1224 20.4357 94.8055 20.4357Z"
    fill="#FFFFFE"
  />
<path
    d="M94.8055 16.8332C95.4887 16.8332 96.0424 16.2794 96.0424 15.5963C96.0424 14.9132 95.4887 14.3594 94.8055 14.3594C94.1224 14.3594 93.5686 14.9132 93.5686 15.5963C93.5686 16.2794 94.1224 16.8332 94.8055 16.8332Z"
    fill="#FFFFFE"
  />
<path
    d="M94.8055 13.2297C95.4886 13.2297 96.0424 12.6759 96.0424 11.9928C96.0424 11.3096 95.4886 10.7559 94.8055 10.7559C94.1224 10.7559 93.5686 11.3096 93.5686 11.9928C93.5686 12.6759 94.1224 13.2297 94.8055 13.2297Z"
    fill="#FFFFFE"
  />
<path
    d="M107.444 34.7951C108.127 34.7951 108.681 34.2413 108.681 33.5582C108.681 32.8751 108.127 32.3213 107.444 32.3213C106.761 32.3213 106.207 32.8751 106.207 33.5582C106.207 34.2413 106.761 34.7951 107.444 34.7951Z"
    fill="#FFFFFE"
  />
<path
    d="M107.444 31.1926C108.127 31.1926 108.681 30.6388 108.681 29.9557C108.681 29.2725 108.127 28.7188 107.444 28.7188C106.761 28.7188 106.207 29.2725 106.207 29.9557C106.207 30.6388 106.761 31.1926 107.444 31.1926Z"
    fill="#FFFFFE"
  />
<path
    d="M107.444 27.5891C108.127 27.5891 108.681 27.0353 108.681 26.3522C108.681 25.669 108.127 25.1152 107.444 25.1152C106.761 25.1152 106.207 25.669 106.207 26.3522C106.207 27.0353 106.761 27.5891 107.444 27.5891Z"
    fill="#FFFFFE"
  />
<path
    d="M111.531 34.7951C112.214 34.7951 112.768 34.2413 112.768 33.5582C112.768 32.8751 112.214 32.3213 111.531 32.3213C110.848 32.3213 110.294 32.8751 110.294 33.5582C110.294 34.2413 110.848 34.7951 111.531 34.7951Z"
    fill="#FFFFFE"
  />
<path
    d="M111.531 31.1916C112.214 31.1916 112.768 30.6378 112.768 29.9547C112.768 29.2716 112.214 28.7178 111.531 28.7178C110.848 28.7178 110.294 29.2716 110.294 29.9547C110.294 30.6378 110.848 31.1916 111.531 31.1916Z"
    fill="#FFFFFE"
  />
<path
    d="M111.531 27.5891C112.214 27.5891 112.768 27.0353 112.768 26.3522C112.768 25.669 112.214 25.1152 111.531 25.1152C110.848 25.1152 110.294 25.669 110.294 26.3522C110.294 27.0353 110.848 27.5891 111.531 27.5891Z"
    fill="#FFFFFE"
  />
<path
    d="M111.531 24.0393C112.214 24.0393 112.768 23.4855 112.768 22.8024C112.768 22.1192 112.214 21.5654 111.531 21.5654C110.848 21.5654 110.294 22.1192 110.294 22.8024C110.294 23.4855 110.848 24.0393 111.531 24.0393Z"
    fill="#FFFFFE"
  />
<path
    d="M103.195 34.7951C103.878 34.7951 104.432 34.2413 104.432 33.5582C104.432 32.8751 103.878 32.3213 103.195 32.3213C102.512 32.3213 101.958 32.8751 101.958 33.5582C101.958 34.2413 102.512 34.7951 103.195 34.7951Z"
    fill="#FFFFFE"
  />
<path
    d="M103.195 31.1926C103.878 31.1926 104.432 30.6388 104.432 29.9557C104.432 29.2725 103.878 28.7188 103.195 28.7188C102.512 28.7188 101.958 29.2725 101.958 29.9557C101.958 30.6388 102.512 31.1926 103.195 31.1926Z"
    fill="#FFFFFE"
  />
<path
    d="M103.195 27.5891C103.878 27.5891 104.432 27.0353 104.432 26.3522C104.432 25.669 103.878 25.1152 103.195 25.1152C102.512 25.1152 101.958 25.669 101.958 26.3522C101.958 27.0353 102.512 27.5891 103.195 27.5891Z"
    fill="#FFFFFE"
  />
<path
    d="M103.195 24.0392C103.878 24.0392 104.432 23.4855 104.432 22.8023C104.432 22.1192 103.878 21.5654 103.195 21.5654C102.512 21.5654 101.958 22.1192 101.958 22.8023C101.958 23.4855 102.512 24.0392 103.195 24.0392Z"
    fill="#FFFFFE"
  />
<path
    d="M103.195 20.4367C103.878 20.4367 104.432 19.8829 104.432 19.1998C104.432 18.5167 103.878 17.9629 103.195 17.9629C102.512 17.9629 101.958 18.5167 101.958 19.1998C101.958 19.8829 102.512 20.4367 103.195 20.4367Z"
    fill="#FFFFFE"
  />
<path
    d="M103.195 16.8332C103.878 16.8332 104.432 16.2794 104.432 15.5963C104.432 14.9132 103.878 14.3594 103.195 14.3594C102.512 14.3594 101.958 14.9132 101.958 15.5963C101.958 16.2794 102.512 16.8332 103.195 16.8332Z"
    fill="#FFFFFE"
  />
<path
    d="M99.0541 34.7951C99.7372 34.7951 100.291 34.2413 100.291 33.5582C100.291 32.8751 99.7372 32.3213 99.0541 32.3213C98.3709 32.3213 97.8171 32.8751 97.8171 33.5582C97.8171 34.2413 98.3709 34.7951 99.0541 34.7951Z"
    fill="#FFFFFE"
  />
<path
    d="M99.0541 31.1916C99.7372 31.1916 100.291 30.6378 100.291 29.9547C100.291 29.2716 99.7372 28.7178 99.0541 28.7178C98.3709 28.7178 97.8171 29.2716 97.8171 29.9547C97.8171 30.6378 98.3709 31.1916 99.0541 31.1916Z"
    fill="#FFFFFE"
  />
<path
    d="M99.0541 27.5891C99.7372 27.5891 100.291 27.0353 100.291 26.3522C100.291 25.669 99.7372 25.1152 99.0541 25.1152C98.3709 25.1152 97.8171 25.669 97.8171 26.3522C97.8171 27.0353 98.3709 27.5891 99.0541 27.5891Z"
    fill="#FFFFFE"
  />
<path
    d="M99.0541 24.0392C99.7372 24.0392 100.291 23.4855 100.291 22.8023C100.291 22.1192 99.7372 21.5654 99.0541 21.5654C98.3709 21.5654 97.8171 22.1192 97.8171 22.8023C97.8171 23.4855 98.3709 24.0392 99.0541 24.0392Z"
    fill="#FFFFFE"
  />
<path
    d="M99.0541 20.4358C99.7372 20.4358 100.291 19.882 100.291 19.1988C100.291 18.5157 99.7372 17.9619 99.0541 17.9619C98.3709 17.9619 97.8171 18.5157 97.8171 19.1988C97.8171 19.882 98.3709 20.4358 99.0541 20.4358Z"
    fill="#FFFFFE"
  />
<path
    d="M99.0541 16.8332C99.7372 16.8332 100.291 16.2794 100.291 15.5963C100.291 14.9132 99.7372 14.3594 99.0541 14.3594C98.3709 14.3594 97.8171 14.9132 97.8171 15.5963C97.8171 16.2794 98.3709 16.8332 99.0541 16.8332Z"
    fill="#FFFFFE"
  />
<path
    d="M99.0541 13.2297C99.7372 13.2297 100.291 12.6759 100.291 11.9928C100.291 11.3096 99.7372 10.7559 99.0541 10.7559C98.3709 10.7559 97.8171 11.3096 97.8171 11.9928C97.8171 12.6759 98.3709 13.2297 99.0541 13.2297Z"
    fill="#FFFFFE"
  />
<path
    d="M99.0541 9.62619C99.7372 9.62619 100.291 9.0724 100.291 8.38927C100.291 7.70613 99.7372 7.15234 99.0541 7.15234C98.3709 7.15234 97.8171 7.70613 97.8171 8.38927C97.8171 9.0724 98.3709 9.62619 99.0541 9.62619Z"
    fill="#FFFFFE"
  />
<path
    d="M99.0541 6.07733C99.7372 6.07733 100.291 5.52355 100.291 4.84042C100.291 4.1573 99.7372 3.60352 99.0541 3.60352C98.3709 3.60352 97.8171 4.1573 97.8171 4.84042C97.8171 5.52355 98.3709 6.07733 99.0541 6.07733Z"
    fill="#FFFFFE"
  />
<path
    d="M99.0541 2.47385C99.7372 2.47385 100.291 1.92006 100.291 1.23692C100.291 0.553789 99.7372 0 99.0541 0C98.3709 0 97.8171 0.553789 97.8171 1.23692C97.8171 1.92006 98.3709 2.47385 99.0541 2.47385Z"
    fill="#FFFFFE"
  />
<path
    d="M119.92 34.7951C120.603 34.7951 121.157 34.2413 121.157 33.5582C121.157 32.8751 120.603 32.3213 119.92 32.3213C119.237 32.3213 118.683 32.8751 118.683 33.5582C118.683 34.2413 119.237 34.7951 119.92 34.7951Z"
    fill="#FFFFFE"
  />
<path
    d="M119.92 31.1916C120.603 31.1916 121.157 30.6378 121.157 29.9547C121.157 29.2716 120.603 28.7178 119.92 28.7178C119.237 28.7178 118.683 29.2716 118.683 29.9547C118.683 30.6378 119.237 31.1916 119.92 31.1916Z"
    fill="#FFFFFE"
  />
<path
    d="M124.115 34.7951C124.798 34.7951 125.352 34.2413 125.352 33.5582C125.352 32.8751 124.798 32.3213 124.115 32.3213C123.432 32.3213 122.878 32.8751 122.878 33.5582C122.878 34.2413 123.432 34.7951 124.115 34.7951Z"
    fill="#FFFFFE"
  />
<path
    d="M124.115 31.1916C124.798 31.1916 125.352 30.6378 125.352 29.9547C125.352 29.2716 124.798 28.7178 124.115 28.7178C123.432 28.7178 122.878 29.2716 122.878 29.9547C122.878 30.6378 123.432 31.1916 124.115 31.1916Z"
    fill="#FFFFFE"
  />
<path
    d="M124.115 27.5881C124.798 27.5881 125.352 27.0343 125.352 26.3512C125.352 25.668 124.798 25.1143 124.115 25.1143C123.432 25.1143 122.878 25.668 122.878 26.3512C122.878 27.0343 123.432 27.5881 124.115 27.5881Z"
    fill="#FFFFFE"
  />
<path
    d="M124.115 24.0393C124.798 24.0393 125.352 23.4855 125.352 22.8024C125.352 22.1192 124.798 21.5654 124.115 21.5654C123.432 21.5654 122.878 22.1192 122.878 22.8024C122.878 23.4855 123.432 24.0393 124.115 24.0393Z"
    fill="#FFFFFE"
  />
<path
    d="M124.115 20.4357C124.798 20.4357 125.352 19.8819 125.352 19.1988C125.352 18.5157 124.798 17.9619 124.115 17.9619C123.432 17.9619 122.878 18.5157 122.878 19.1988C122.878 19.8819 123.432 20.4357 124.115 20.4357Z"
    fill="#FFFFFE"
  />
<path
    d="M136.753 34.7951C137.436 34.7951 137.99 34.2413 137.99 33.5582C137.99 32.8751 137.436 32.3213 136.753 32.3213C136.07 32.3213 135.516 32.8751 135.516 33.5582C135.516 34.2413 136.07 34.7951 136.753 34.7951Z"
    fill="#FFFFFE"
  />
<path
    d="M136.753 31.1926C137.436 31.1926 137.99 30.6388 137.99 29.9557C137.99 29.2725 137.436 28.7188 136.753 28.7188C136.07 28.7188 135.516 29.2725 135.516 29.9557C135.516 30.6388 136.07 31.1926 136.753 31.1926Z"
    fill="#FFFFFE"
  />
<path
    d="M136.753 27.5891C137.436 27.5891 137.99 27.0353 137.99 26.3522C137.99 25.669 137.436 25.1152 136.753 25.1152C136.07 25.1152 135.516 25.669 135.516 26.3522C135.516 27.0353 136.07 27.5891 136.753 27.5891Z"
    fill="#FFFFFE"
  />
<path
    d="M140.894 34.7951C141.577 34.7951 142.131 34.2413 142.131 33.5582C142.131 32.8751 141.577 32.3213 140.894 32.3213C140.211 32.3213 139.657 32.8751 139.657 33.5582C139.657 34.2413 140.211 34.7951 140.894 34.7951Z"
    fill="#FFFFFE"
  />
<path
    d="M140.894 31.1916C141.577 31.1916 142.131 30.6378 142.131 29.9547C142.131 29.2716 141.577 28.7178 140.894 28.7178C140.211 28.7178 139.657 29.2716 139.657 29.9547C139.657 30.6378 140.211 31.1916 140.894 31.1916Z"
    fill="#FFFFFE"
  />
<path
    d="M140.894 27.5891C141.577 27.5891 142.131 27.0353 142.131 26.3522C142.131 25.669 141.577 25.1152 140.894 25.1152C140.211 25.1152 139.657 25.669 139.657 26.3522C139.657 27.0353 140.211 27.5891 140.894 27.5891Z"
    fill="#FFFFFE"
  />
<path
    d="M140.894 24.0393C141.577 24.0393 142.131 23.4855 142.131 22.8024C142.131 22.1192 141.577 21.5654 140.894 21.5654C140.211 21.5654 139.657 22.1192 139.657 22.8024C139.657 23.4855 140.211 24.0393 140.894 24.0393Z"
    fill="#FFFFFE"
  />
<path
    d="M132.505 34.7951C133.188 34.7951 133.742 34.2413 133.742 33.5582C133.742 32.8751 133.188 32.3213 132.505 32.3213C131.822 32.3213 131.268 32.8751 131.268 33.5582C131.268 34.2413 131.822 34.7951 132.505 34.7951Z"
    fill="#FFFFFE"
  />
<path
    d="M132.505 31.1926C133.188 31.1926 133.742 30.6388 133.742 29.9557C133.742 29.2725 133.188 28.7188 132.505 28.7188C131.822 28.7188 131.268 29.2725 131.268 29.9557C131.268 30.6388 131.822 31.1926 132.505 31.1926Z"
    fill="#FFFFFE"
  />
<path
    d="M132.505 27.5891C133.188 27.5891 133.742 27.0353 133.742 26.3522C133.742 25.669 133.188 25.1152 132.505 25.1152C131.822 25.1152 131.268 25.669 131.268 26.3522C131.268 27.0353 131.822 27.5891 132.505 27.5891Z"
    fill="#FFFFFE"
  />
<path
    d="M132.505 24.0392C133.188 24.0392 133.742 23.4855 133.742 22.8023C133.742 22.1192 133.188 21.5654 132.505 21.5654C131.822 21.5654 131.268 22.1192 131.268 22.8023C131.268 23.4855 131.822 24.0392 132.505 24.0392Z"
    fill="#FFFFFE"
  />
<path
    d="M132.505 20.4367C133.188 20.4367 133.742 19.8829 133.742 19.1998C133.742 18.5167 133.188 17.9629 132.505 17.9629C131.822 17.9629 131.268 18.5167 131.268 19.1998C131.268 19.8829 131.822 20.4367 132.505 20.4367Z"
    fill="#FFFFFE"
  />
<path
    d="M132.505 16.8332C133.188 16.8332 133.742 16.2794 133.742 15.5963C133.742 14.9132 133.188 14.3594 132.505 14.3594C131.822 14.3594 131.268 14.9132 131.268 15.5963C131.268 16.2794 131.822 16.8332 132.505 16.8332Z"
    fill="#FFFFFE"
  />
<path
    d="M128.31 34.7951C128.993 34.7951 129.547 34.2413 129.547 33.5582C129.547 32.8751 128.993 32.3213 128.31 32.3213C127.627 32.3213 127.073 32.8751 127.073 33.5582C127.073 34.2413 127.627 34.7951 128.31 34.7951Z"
    fill="#FFFFFE"
  />
<path
    d="M128.31 31.1926C128.993 31.1926 129.547 30.6388 129.547 29.9557C129.547 29.2725 128.993 28.7188 128.31 28.7188C127.627 28.7188 127.073 29.2725 127.073 29.9557C127.073 30.6388 127.627 31.1926 128.31 31.1926Z"
    fill="#FFFFFE"
  />
<path
    d="M128.31 27.5891C128.993 27.5891 129.547 27.0353 129.547 26.3521C129.547 25.669 128.993 25.1152 128.31 25.1152C127.627 25.1152 127.073 25.669 127.073 26.3521C127.073 27.0353 127.627 27.5891 128.31 27.5891Z"
    fill="#FFFFFE"
  />
<path
    d="M128.31 24.0393C128.993 24.0393 129.547 23.4855 129.547 22.8024C129.547 22.1192 128.993 21.5654 128.31 21.5654C127.627 21.5654 127.073 22.1192 127.073 22.8024C127.073 23.4855 127.627 24.0393 128.31 24.0393Z"
    fill="#FFFFFE"
  />
<path
    d="M128.31 20.4367C128.993 20.4367 129.547 19.8829 129.547 19.1998C129.547 18.5167 128.993 17.9629 128.31 17.9629C127.627 17.9629 127.073 18.5167 127.073 19.1998C127.073 19.8829 127.627 20.4367 128.31 20.4367Z"
    fill="#FFFFFE"
  />
<path
    d="M128.31 16.8332C128.993 16.8332 129.547 16.2794 129.547 15.5963C129.547 14.9132 128.993 14.3594 128.31 14.3594C127.627 14.3594 127.073 14.9132 127.073 15.5963C127.073 16.2794 127.627 16.8332 128.31 16.8332Z"
    fill="#FFFFFE"
  />
<path
    d="M128.31 13.2297C128.993 13.2297 129.547 12.6759 129.547 11.9928C129.547 11.3096 128.993 10.7559 128.31 10.7559C127.627 10.7559 127.073 11.3096 127.073 11.9928C127.073 12.6759 127.627 13.2297 128.31 13.2297Z"
    fill="#FFFFFE"
  />
<path
    d="M128.31 9.62717C128.993 9.62717 129.547 9.07338 129.547 8.39024C129.547 7.70711 128.993 7.15332 128.31 7.15332C127.627 7.15332 127.073 7.70711 127.073 8.39024C127.073 9.07338 127.627 9.62717 128.31 9.62717Z"
    fill="#FFFFFE"
  />
<path
    d="M128.31 6.07733C128.993 6.07733 129.547 5.52355 129.547 4.84042C129.547 4.1573 128.993 3.60352 128.31 3.60352C127.627 3.60352 127.073 4.1573 127.073 4.84042C127.073 5.52355 127.627 6.07733 128.31 6.07733Z"
    fill="#FFFFFE"
  />
<path
    d="M166.063 34.7951C166.746 34.7951 167.3 34.2413 167.3 33.5582C167.3 32.8751 166.746 32.3213 166.063 32.3213C165.379 32.3213 164.826 32.8751 164.826 33.5582C164.826 34.2413 165.379 34.7951 166.063 34.7951Z"
    fill="#FFFFFE"
  />
<path
    d="M166.063 31.1916C166.746 31.1916 167.3 30.6378 167.3 29.9547C167.3 29.2716 166.746 28.7178 166.063 28.7178C165.379 28.7178 164.826 29.2716 164.826 29.9547C164.826 30.6378 165.379 31.1916 166.063 31.1916Z"
    fill="#FFFFFE"
  />
<path
    d="M166.063 27.5891C166.746 27.5891 167.3 27.0353 167.3 26.3522C167.3 25.669 166.746 25.1152 166.063 25.1152C165.379 25.1152 164.826 25.669 164.826 26.3522C164.826 27.0353 165.379 27.5891 166.063 27.5891Z"
    fill="#FFFFFE"
  />
<path
    d="M166.063 24.0393C166.746 24.0393 167.3 23.4855 167.3 22.8024C167.3 22.1192 166.746 21.5654 166.063 21.5654C165.379 21.5654 164.826 22.1192 164.826 22.8024C164.826 23.4855 165.379 24.0393 166.063 24.0393Z"
    fill="#FFFFFE"
  />
<path
    d="M174.452 34.7951C175.135 34.7951 175.689 34.2413 175.689 33.5582C175.689 32.8751 175.135 32.3213 174.452 32.3213C173.769 32.3213 173.215 32.8751 173.215 33.5582C173.215 34.2413 173.769 34.7951 174.452 34.7951Z"
    fill="#FFFFFE"
  />
<path
    d="M170.257 34.7951C170.941 34.7951 171.494 34.2413 171.494 33.5582C171.494 32.8751 170.941 32.3213 170.257 32.3213C169.574 32.3213 169.021 32.8751 169.021 33.5582C169.021 34.2413 169.574 34.7951 170.257 34.7951Z"
    fill="#FFFFFE"
  />
<path
    d="M170.257 31.1926C170.941 31.1926 171.494 30.6388 171.494 29.9557C171.494 29.2725 170.941 28.7188 170.257 28.7188C169.574 28.7188 169.021 29.2725 169.021 29.9557C169.021 30.6388 169.574 31.1926 170.257 31.1926Z"
    fill="#FFFFFE"
  />
<path
    d="M170.257 27.5891C170.941 27.5891 171.494 27.0353 171.494 26.3522C171.494 25.669 170.941 25.1152 170.257 25.1152C169.574 25.1152 169.021 25.669 169.021 26.3522C169.021 27.0353 169.574 27.5891 170.257 27.5891Z"
    fill="#FFFFFE"
  />
<path
    d="M170.257 24.0392C170.941 24.0392 171.494 23.4855 171.494 22.8023C171.494 22.1192 170.941 21.5654 170.257 21.5654C169.574 21.5654 169.021 22.1192 169.021 22.8023C169.021 23.4855 169.574 24.0392 170.257 24.0392Z"
    fill="#FFFFFE"
  />
<path
    d="M170.257 20.4367C170.941 20.4367 171.494 19.8829 171.494 19.1998C171.494 18.5167 170.941 17.9629 170.257 17.9629C169.574 17.9629 169.021 18.5167 169.021 19.1998C169.021 19.8829 169.574 20.4367 170.257 20.4367Z"
    fill="#FFFFFE"
  />
<path
    d="M170.257 16.8332C170.941 16.8332 171.494 16.2794 171.494 15.5963C171.494 14.9132 170.941 14.3594 170.257 14.3594C169.574 14.3594 169.021 14.9132 169.021 15.5963C169.021 16.2794 169.574 16.8332 170.257 16.8332Z"
    fill="#FFFFFE"
  />
<path
    d="M153.478 34.7951C154.161 34.7951 154.715 34.2413 154.715 33.5582C154.715 32.8751 154.161 32.3213 153.478 32.3213C152.795 32.3213 152.241 32.8751 152.241 33.5582C152.241 34.2413 152.795 34.7951 153.478 34.7951Z"
    fill="#FFFFFE"
  />
<path
    d="M153.478 31.1916C154.161 31.1916 154.715 30.6378 154.715 29.9547C154.715 29.2716 154.161 28.7178 153.478 28.7178C152.795 28.7178 152.241 29.2716 152.241 29.9547C152.241 30.6378 152.795 31.1916 153.478 31.1916Z"
    fill="#FFFFFE"
  />
<path
    d="M153.478 27.5891C154.161 27.5891 154.715 27.0353 154.715 26.3522C154.715 25.669 154.161 25.1152 153.478 25.1152C152.795 25.1152 152.241 25.669 152.241 26.3522C152.241 27.0353 152.795 27.5891 153.478 27.5891Z"
    fill="#FFFFFE"
  />
<path
    d="M153.478 24.0393C154.162 24.0393 154.715 23.4855 154.715 22.8024C154.715 22.1192 154.162 21.5654 153.478 21.5654C152.795 21.5654 152.241 22.1192 152.241 22.8024C152.241 23.4855 152.795 24.0393 153.478 24.0393Z"
    fill="#FFFFFE"
  />
<path
    d="M149.284 34.7951C149.967 34.7951 150.52 34.2413 150.52 33.5582C150.52 32.8751 149.967 32.3213 149.284 32.3213C148.6 32.3213 148.047 32.8751 148.047 33.5582C148.047 34.2413 148.6 34.7951 149.284 34.7951Z"
    fill="#FFFFFE"
  />
<path
    d="M149.284 31.1926C149.967 31.1926 150.52 30.6388 150.52 29.9557C150.52 29.2725 149.967 28.7188 149.284 28.7188C148.6 28.7188 148.047 29.2725 148.047 29.9557C148.047 30.6388 148.6 31.1926 149.284 31.1926Z"
    fill="#FFFFFE"
  />
<path
    d="M149.284 27.5891C149.967 27.5891 150.52 27.0353 150.52 26.3522C150.52 25.669 149.967 25.1152 149.284 25.1152C148.6 25.1152 148.047 25.669 148.047 26.3522C148.047 27.0353 148.6 27.5891 149.284 27.5891Z"
    fill="#FFFFFE"
  />
<path
    d="M149.284 24.0392C149.967 24.0392 150.52 23.4855 150.52 22.8023C150.52 22.1192 149.967 21.5654 149.284 21.5654C148.6 21.5654 148.047 22.1192 148.047 22.8023C148.047 23.4855 148.6 24.0392 149.284 24.0392Z"
    fill="#FFFFFE"
  />
<path
    d="M149.284 20.4367C149.967 20.4367 150.52 19.8829 150.52 19.1998C150.52 18.5167 149.967 17.9629 149.284 17.9629C148.6 17.9629 148.047 18.5167 148.047 19.1998C148.047 19.8829 148.6 20.4367 149.284 20.4367Z"
    fill="#FFFFFE"
  />
<path
    d="M149.284 16.8332C149.967 16.8332 150.52 16.2794 150.52 15.5963C150.52 14.9132 149.967 14.3594 149.284 14.3594C148.6 14.3594 148.047 14.9132 148.047 15.5963C148.047 16.2794 148.6 16.8332 149.284 16.8332Z"
    fill="#FFFFFE"
  />
<path
    d="M157.727 34.7951C158.41 34.7951 158.964 34.2413 158.964 33.5582C158.964 32.8751 158.41 32.3213 157.727 32.3213C157.044 32.3213 156.49 32.8751 156.49 33.5582C156.49 34.2413 157.044 34.7951 157.727 34.7951Z"
    fill="#FFFFFE"
  />
<path
    d="M157.727 31.1916C158.41 31.1916 158.964 30.6378 158.964 29.9547C158.964 29.2716 158.41 28.7178 157.727 28.7178C157.044 28.7178 156.49 29.2716 156.49 29.9547C156.49 30.6378 157.044 31.1916 157.727 31.1916Z"
    fill="#FFFFFE"
  />
<path
    d="M157.727 27.5881C158.41 27.5881 158.964 27.0343 158.964 26.3512C158.964 25.668 158.41 25.1143 157.727 25.1143C157.044 25.1143 156.49 25.668 156.49 26.3512C156.49 27.0343 157.044 27.5881 157.727 27.5881Z"
    fill="#FFFFFE"
  />
<path
    d="M157.727 24.0392C158.41 24.0392 158.964 23.4855 158.964 22.8023C158.964 22.1192 158.41 21.5654 157.727 21.5654C157.044 21.5654 156.49 22.1192 156.49 22.8023C156.49 23.4855 157.044 24.0392 157.727 24.0392Z"
    fill="#FFFFFE"
  />
<path
    d="M157.727 20.4358C158.41 20.4358 158.964 19.882 158.964 19.1988C158.964 18.5157 158.41 17.9619 157.727 17.9619C157.044 17.9619 156.49 18.5157 156.49 19.1988C156.49 19.882 157.044 20.4358 157.727 20.4358Z"
    fill="#FFFFFE"
  />
<path
    d="M157.727 16.8322C158.41 16.8322 158.964 16.2784 158.964 15.5953C158.964 14.9122 158.41 14.3584 157.727 14.3584C157.044 14.3584 156.49 14.9122 156.49 15.5953C156.49 16.2784 157.044 16.8322 157.727 16.8322Z"
    fill="#FFFFFE"
  />
<path
    d="M157.727 13.2297C158.41 13.2297 158.964 12.6759 158.964 11.9928C158.964 11.3096 158.41 10.7559 157.727 10.7559C157.044 10.7559 156.49 11.3096 156.49 11.9928C156.49 12.6759 157.044 13.2297 157.727 13.2297Z"
    fill="#FFFFFE"
  />
<path
    d="M157.727 9.62619C158.41 9.62619 158.964 9.0724 158.964 8.38927C158.964 7.70613 158.41 7.15234 157.727 7.15234C157.044 7.15234 156.49 7.70613 156.49 8.38927C156.49 9.0724 157.044 9.62619 157.727 9.62619Z"
    fill="#FFFFFE"
  />
<path
    d="M161.868 34.7951C162.551 34.7951 163.105 34.2413 163.105 33.5582C163.105 32.8751 162.551 32.3213 161.868 32.3213C161.185 32.3213 160.631 32.8751 160.631 33.5582C160.631 34.2413 161.185 34.7951 161.868 34.7951Z"
    fill="#FFFFFE"
  />
<path
    d="M161.868 31.1916C162.551 31.1916 163.105 30.6378 163.105 29.9547C163.105 29.2716 162.551 28.7178 161.868 28.7178C161.185 28.7178 160.631 29.2716 160.631 29.9547C160.631 30.6378 161.185 31.1916 161.868 31.1916Z"
    fill="#FFFFFE"
  />
<path
    d="M161.868 27.5891C162.551 27.5891 163.105 27.0353 163.105 26.3522C163.105 25.669 162.551 25.1152 161.868 25.1152C161.185 25.1152 160.631 25.669 160.631 26.3522C160.631 27.0353 161.185 27.5891 161.868 27.5891Z"
    fill="#FFFFFE"
  />
<path
    d="M161.868 24.0392C162.551 24.0392 163.105 23.4855 163.105 22.8023C163.105 22.1192 162.551 21.5654 161.868 21.5654C161.185 21.5654 160.631 22.1192 160.631 22.8023C160.631 23.4855 161.185 24.0392 161.868 24.0392Z"
    fill="#FFFFFE"
  />
<path
    d="M161.868 20.4358C162.551 20.4358 163.105 19.882 163.105 19.1988C163.105 18.5157 162.551 17.9619 161.868 17.9619C161.185 17.9619 160.631 18.5157 160.631 19.1988C160.631 19.882 161.185 20.4358 161.868 20.4358Z"
    fill="#FFFFFE"
  />
<path
    d="M161.868 16.8332C162.551 16.8332 163.105 16.2794 163.105 15.5963C163.105 14.9132 162.551 14.3594 161.868 14.3594C161.185 14.3594 160.631 14.9132 160.631 15.5963C160.631 16.2794 161.185 16.8332 161.868 16.8332Z"
    fill="#FFFFFE"
  />
<path
    d="M161.868 13.2297C162.551 13.2297 163.105 12.6759 163.105 11.9928C163.105 11.3096 162.551 10.7559 161.868 10.7559C161.185 10.7559 160.631 11.3096 160.631 11.9928C160.631 12.6759 161.185 13.2297 161.868 13.2297Z"
    fill="#FFFFFE"
  />
<path
    d="M161.868 9.62619C162.551 9.62619 163.105 9.0724 163.105 8.38927C163.105 7.70613 162.551 7.15234 161.868 7.15234C161.185 7.15234 160.631 7.70613 160.631 8.38927C160.631 9.0724 161.185 9.62619 161.868 9.62619Z"
    fill="#FFFFFE"
  />
<path
    d="M161.868 6.07733C162.551 6.07733 163.105 5.52355 163.105 4.84042C163.105 4.1573 162.551 3.60352 161.868 3.60352C161.185 3.60352 160.631 4.1573 160.631 4.84042C160.631 5.52355 161.185 6.07733 161.868 6.07733Z"
    fill="#FFFFFE"
  />
<path
    d="M161.868 2.47385C162.551 2.47385 163.105 1.92006 163.105 1.23692C163.105 0.553789 162.551 0 161.868 0C161.185 0 160.631 0.553789 160.631 1.23692C160.631 1.92006 161.185 2.47385 161.868 2.47385Z"
    fill="#FFFFFE"
  />
<path
    d="M191.177 34.7951C191.86 34.7951 192.414 34.2413 192.414 33.5582C192.414 32.8751 191.86 32.3213 191.177 32.3213C190.494 32.3213 189.94 32.8751 189.94 33.5582C189.94 34.2413 190.494 34.7951 191.177 34.7951Z"
    fill="#FFFFFE"
  />
<path
    d="M191.231 31.1916C191.914 31.1916 192.468 30.6378 192.468 29.9547C192.468 29.2716 191.914 28.7178 191.231 28.7178C190.548 28.7178 189.994 29.2716 189.994 29.9547C189.994 30.6378 190.548 31.1916 191.231 31.1916Z"
    fill="#FFFFFE"
  />
<path
    d="M191.231 27.5891C191.914 27.5891 192.468 27.0353 192.468 26.3522C192.468 25.669 191.914 25.1152 191.231 25.1152C190.548 25.1152 189.994 25.669 189.994 26.3522C189.994 27.0353 190.548 27.5891 191.231 27.5891Z"
    fill="#FFFFFE"
  />
<path
    d="M191.231 24.0392C191.914 24.0392 192.468 23.4855 192.468 22.8023C192.468 22.1192 191.914 21.5654 191.231 21.5654C190.548 21.5654 189.994 22.1192 189.994 22.8023C189.994 23.4855 190.548 24.0392 191.231 24.0392Z"
    fill="#FFFFFE"
  />
<path
    d="M178.701 34.7951C179.384 34.7951 179.938 34.2413 179.938 33.5582C179.938 32.8751 179.384 32.3213 178.701 32.3213C178.018 32.3213 177.464 32.8751 177.464 33.5582C177.464 34.2413 178.018 34.7951 178.701 34.7951Z"
    fill="#FFFFFE"
  />
<path
    d="M178.701 31.1926C179.384 31.1926 179.938 30.6388 179.938 29.9557C179.938 29.2725 179.384 28.7188 178.701 28.7188C178.018 28.7188 177.464 29.2725 177.464 29.9557C177.464 30.6388 178.018 31.1926 178.701 31.1926Z"
    fill="#FFFFFE"
  />
<path
    d="M178.701 27.5891C179.384 27.5891 179.938 27.0353 179.938 26.3522C179.938 25.669 179.384 25.1152 178.701 25.1152C178.018 25.1152 177.464 25.669 177.464 26.3522C177.464 27.0353 178.018 27.5891 178.701 27.5891Z"
    fill="#FFFFFE"
  />
<path
    d="M182.734 34.7951C183.417 34.7951 183.971 34.2413 183.971 33.5582C183.971 32.8751 183.417 32.3213 182.734 32.3213C182.051 32.3213 181.497 32.8751 181.497 33.5582C181.497 34.2413 182.051 34.7951 182.734 34.7951Z"
    fill="#FFFFFE"
  />
<path
    d="M182.949 31.1916C183.632 31.1916 184.186 30.6378 184.186 29.9547C184.186 29.2716 183.632 28.7178 182.949 28.7178C182.266 28.7178 181.712 29.2716 181.712 29.9547C181.712 30.6378 182.266 31.1916 182.949 31.1916Z"
    fill="#FFFFFE"
  />
<path
    d="M182.949 27.5881C183.632 27.5881 184.186 27.0343 184.186 26.3512C184.186 25.668 183.632 25.1143 182.949 25.1143C182.266 25.1143 181.712 25.668 181.712 26.3512C181.712 27.0343 182.266 27.5881 182.949 27.5881Z"
    fill="#FFFFFE"
  />
<path
    d="M182.949 24.0393C183.632 24.0393 184.186 23.4855 184.186 22.8024C184.186 22.1192 183.632 21.5654 182.949 21.5654C182.266 21.5654 181.712 22.1192 181.712 22.8024C181.712 23.4855 182.266 24.0393 182.949 24.0393Z"
    fill="#FFFFFE"
  />
<path
    d="M182.949 20.4357C183.632 20.4357 184.186 19.8819 184.186 19.1988C184.186 18.5157 183.632 17.9619 182.949 17.9619C182.266 17.9619 181.712 18.5157 181.712 19.1988C181.712 19.8819 182.266 20.4357 182.949 20.4357Z"
    fill="#FFFFFE"
  />
<path
    d="M186.929 34.7951C187.612 34.7951 188.166 34.2413 188.166 33.5582C188.166 32.8751 187.612 32.3213 186.929 32.3213C186.246 32.3213 185.692 32.8751 185.692 33.5582C185.692 34.2413 186.246 34.7951 186.929 34.7951Z"
    fill="#FFFFFE"
  />
<path
    d="M187.144 31.1916C187.827 31.1916 188.381 30.6378 188.381 29.9547C188.381 29.2716 187.827 28.7178 187.144 28.7178C186.461 28.7178 185.907 29.2716 185.907 29.9547C185.907 30.6378 186.461 31.1916 187.144 31.1916Z"
    fill="#FFFFFE"
  />
<path
    d="M187.144 27.5891C187.827 27.5891 188.381 27.0353 188.381 26.3521C188.381 25.669 187.827 25.1152 187.144 25.1152C186.461 25.1152 185.907 25.669 185.907 26.3521C185.907 27.0353 186.461 27.5891 187.144 27.5891Z"
    fill="#FFFFFE"
  />
<path
    d="M187.144 24.0393C187.827 24.0393 188.381 23.4855 188.381 22.8024C188.381 22.1192 187.827 21.5654 187.144 21.5654C186.461 21.5654 185.907 22.1192 185.907 22.8024C185.907 23.4855 186.461 24.0393 187.144 24.0393Z"
    fill="#FFFFFE"
  />
<path
    d="M187.144 20.4357C187.827 20.4357 188.381 19.8819 188.381 19.1988C188.381 18.5157 187.827 17.9619 187.144 17.9619C186.461 17.9619 185.907 18.5157 185.907 19.1988C185.907 19.8819 186.461 20.4357 187.144 20.4357Z"
    fill="#FFFFFE"
  />
<path
    d="M187.036 16.8332C187.72 16.8332 188.273 16.2794 188.273 15.5963C188.273 14.9132 187.72 14.3594 187.036 14.3594C186.353 14.3594 185.8 14.9132 185.8 15.5963C185.8 16.2794 186.353 16.8332 187.036 16.8332Z"
    fill="#FFFFFE"
  />
<path
    d="M187.036 13.2297C187.72 13.2297 188.273 12.6759 188.273 11.9928C188.273 11.3096 187.72 10.7559 187.036 10.7559C186.353 10.7559 185.8 11.3096 185.8 11.9928C185.8 12.6759 186.353 13.2297 187.036 13.2297Z"
    fill="#FFFFFE"
  />
<path
    d="M195.372 34.7951C196.055 34.7951 196.609 34.2413 196.609 33.5582C196.609 32.8751 196.055 32.3213 195.372 32.3213C194.689 32.3213 194.135 32.8751 194.135 33.5582C194.135 34.2413 194.689 34.7951 195.372 34.7951Z"
    fill="#FFFFFE"
  />
<path
    d="M195.48 31.1916C196.163 31.1916 196.717 30.6378 196.717 29.9547C196.717 29.2716 196.163 28.7178 195.48 28.7178C194.796 28.7178 194.243 29.2716 194.243 29.9547C194.243 30.6378 194.796 31.1916 195.48 31.1916Z"
    fill="#FFFFFE"
  />
<path
    d="M195.48 27.5891C196.163 27.5891 196.717 27.0353 196.717 26.3522C196.717 25.669 196.163 25.1152 195.48 25.1152C194.796 25.1152 194.243 25.669 194.243 26.3522C194.243 27.0353 194.796 27.5891 195.48 27.5891Z"
    fill="#FFFFFE"
  />
<path
    d="M195.48 24.0392C196.163 24.0392 196.717 23.4855 196.717 22.8023C196.717 22.1192 196.163 21.5654 195.48 21.5654C194.796 21.5654 194.243 22.1192 194.243 22.8023C194.243 23.4855 194.796 24.0392 195.48 24.0392Z"
    fill="#FFFFFE"
  />
<path
    d="M195.48 20.4358C196.163 20.4358 196.717 19.882 196.717 19.1988C196.717 18.5157 196.163 17.9619 195.48 17.9619C194.796 17.9619 194.243 18.5157 194.243 19.1988C194.243 19.882 194.796 20.4358 195.48 20.4358Z"
    fill="#FFFFFE"
  />
<path
    d="M195.48 16.8332C196.163 16.8332 196.717 16.2794 196.717 15.5963C196.717 14.9132 196.163 14.3594 195.48 14.3594C194.796 14.3594 194.243 14.9132 194.243 15.5963C194.243 16.2794 194.796 16.8332 195.48 16.8332Z"
    fill="#FFFFFE"
  />
<path
    d="M195.48 13.2297C196.163 13.2297 196.717 12.6759 196.717 11.9928C196.717 11.3096 196.163 10.7559 195.48 10.7559C194.796 10.7559 194.243 11.3096 194.243 11.9928C194.243 12.6759 194.796 13.2297 195.48 13.2297Z"
    fill="#FFFFFE"
  />
<path
    d="M195.48 9.62619C196.163 9.62619 196.717 9.0724 196.717 8.38927C196.717 7.70613 196.163 7.15234 195.48 7.15234C194.796 7.15234 194.243 7.70613 194.243 8.38927C194.243 9.0724 194.796 9.62619 195.48 9.62619Z"
    fill="#FFFFFE"
  />
<path
    d="M195.48 6.07733C196.163 6.07733 196.717 5.52355 196.717 4.84042C196.717 4.1573 196.163 3.60352 195.48 3.60352C194.796 3.60352 194.243 4.1573 194.243 4.84042C194.243 5.52355 194.796 6.07733 195.48 6.07733Z"
    fill="#FFFFFE"
  />
<path
    d="M195.48 2.47385C196.163 2.47385 196.717 1.92006 196.717 1.23692C196.717 0.553789 196.163 0 195.48 0C194.796 0 194.243 0.553789 194.243 1.23692C194.243 1.92006 194.796 2.47385 195.48 2.47385Z"
    fill="#FFFFFE"
  />
<path
    d="M241.515 34.7951C242.198 34.7951 242.751 34.2413 242.751 33.5582C242.751 32.8751 242.198 32.3213 241.515 32.3213C240.831 32.3213 240.278 32.8751 240.278 33.5582C240.278 34.2413 240.831 34.7951 241.515 34.7951Z"
    fill="#FFFFFE"
  />
<path
    d="M245.763 34.7951C246.446 34.7951 247 34.2413 247 33.5582C247 32.8751 246.446 32.3213 245.763 32.3213C245.08 32.3213 244.526 32.8751 244.526 33.5582C244.526 34.2413 245.08 34.7951 245.763 34.7951Z"
    fill="#FFFFFE"
  />
<path
    d="M245.763 31.1916C246.446 31.1916 247 30.6378 247 29.9547C247 29.2716 246.446 28.7178 245.763 28.7178C245.08 28.7178 244.526 29.2716 244.526 29.9547C244.526 30.6378 245.08 31.1916 245.763 31.1916Z"
    fill="#FFFFFE"
  />
<path
    d="M220.541 34.7951C221.224 34.7951 221.778 34.2413 221.778 33.5582C221.778 32.8751 221.224 32.3213 220.541 32.3213C219.858 32.3213 219.304 32.8751 219.304 33.5582C219.304 34.2413 219.858 34.7951 220.541 34.7951Z"
    fill="#FFFFFE"
  />
<path
    d="M220.541 31.1916C221.224 31.1916 221.778 30.6378 221.778 29.9547C221.778 29.2716 221.224 28.7178 220.541 28.7178C219.858 28.7178 219.304 29.2716 219.304 29.9547C219.304 30.6378 219.858 31.1916 220.541 31.1916Z"
    fill="#FFFFFE"
  />
<path
    d="M220.541 27.5881C221.224 27.5881 221.778 27.0343 221.778 26.3512C221.778 25.668 221.224 25.1143 220.541 25.1143C219.858 25.1143 219.304 25.668 219.304 26.3512C219.304 27.0343 219.858 27.5881 220.541 27.5881Z"
    fill="#FFFFFE"
  />
<path
    d="M220.541 24.0393C221.224 24.0393 221.778 23.4855 221.778 22.8024C221.778 22.1192 221.224 21.5654 220.541 21.5654C219.858 21.5654 219.304 22.1192 219.304 22.8024C219.304 23.4855 219.858 24.0393 220.541 24.0393Z"
    fill="#FFFFFE"
  />
<path
    d="M220.541 20.4357C221.224 20.4357 221.778 19.8819 221.778 19.1988C221.778 18.5157 221.224 17.9619 220.541 17.9619C219.858 17.9619 219.304 18.5157 219.304 19.1988C219.304 19.8819 219.858 20.4357 220.541 20.4357Z"
    fill="#FFFFFE"
  />
<path
    d="M233.125 34.7951C233.808 34.7951 234.362 34.2413 234.362 33.5582C234.362 32.8751 233.808 32.3213 233.125 32.3213C232.442 32.3213 231.888 32.8751 231.888 33.5582C231.888 34.2413 232.442 34.7951 233.125 34.7951Z"
    fill="#FFFFFE"
  />
<path
    d="M233.125 31.1916C233.808 31.1916 234.362 30.6378 234.362 29.9547C234.362 29.2716 233.808 28.7178 233.125 28.7178C232.442 28.7178 231.888 29.2716 231.888 29.9547C231.888 30.6378 232.442 31.1916 233.125 31.1916Z"
    fill="#FFFFFE"
  />
<path
    d="M237.32 34.7951C238.003 34.7951 238.557 34.2413 238.557 33.5582C238.557 32.8751 238.003 32.3213 237.32 32.3213C236.637 32.3213 236.083 32.8751 236.083 33.5582C236.083 34.2413 236.637 34.7951 237.32 34.7951Z"
    fill="#FFFFFE"
  />
<path
    d="M237.32 31.1926C238.003 31.1926 238.557 30.6388 238.557 29.9557C238.557 29.2725 238.003 28.7188 237.32 28.7188C236.637 28.7188 236.083 29.2725 236.083 29.9557C236.083 30.6388 236.637 31.1926 237.32 31.1926Z"
    fill="#FFFFFE"
  />
<path
    d="M237.32 27.5891C238.003 27.5891 238.557 27.0353 238.557 26.3522C238.557 25.669 238.003 25.1152 237.32 25.1152C236.637 25.1152 236.083 25.669 236.083 26.3522C236.083 27.0353 236.637 27.5891 237.32 27.5891Z"
    fill="#FFFFFE"
  />
<path
    d="M228.984 34.7951C229.667 34.7951 230.221 34.2413 230.221 33.5582C230.221 32.8751 229.667 32.3213 228.984 32.3213C228.301 32.3213 227.747 32.8751 227.747 33.5582C227.747 34.2413 228.301 34.7951 228.984 34.7951Z"
    fill="#FFFFFE"
  />
<path
    d="M228.984 31.1916C229.667 31.1916 230.221 30.6378 230.221 29.9547C230.221 29.2716 229.667 28.7178 228.984 28.7178C228.301 28.7178 227.747 29.2716 227.747 29.9547C227.747 30.6378 228.301 31.1916 228.984 31.1916Z"
    fill="#FFFFFE"
  />
<path
    d="M228.984 27.5891C229.667 27.5891 230.221 27.0353 230.221 26.3521C230.221 25.669 229.667 25.1152 228.984 25.1152C228.301 25.1152 227.747 25.669 227.747 26.3521C227.747 27.0353 228.301 27.5891 228.984 27.5891Z"
    fill="#FFFFFE"
  />
<path
    d="M228.984 24.0393C229.667 24.0393 230.221 23.4855 230.221 22.8024C230.221 22.1192 229.667 21.5654 228.984 21.5654C228.301 21.5654 227.747 22.1192 227.747 22.8024C227.747 23.4855 228.301 24.0393 228.984 24.0393Z"
    fill="#FFFFFE"
  />
<path
    d="M228.984 20.4357C229.667 20.4357 230.221 19.8819 230.221 19.1988C230.221 18.5157 229.667 17.9619 228.984 17.9619C228.301 17.9619 227.747 18.5157 227.747 19.1988C227.747 19.8819 228.301 20.4357 228.984 20.4357Z"
    fill="#FFFFFE"
  />
<path
    d="M228.984 16.8332C229.667 16.8332 230.221 16.2794 230.221 15.5963C230.221 14.9132 229.667 14.3594 228.984 14.3594C228.301 14.3594 227.747 14.9132 227.747 15.5963C227.747 16.2794 228.301 16.8332 228.984 16.8332Z"
    fill="#FFFFFE"
  />
<path
    d="M228.984 13.2297C229.667 13.2297 230.221 12.6759 230.221 11.9928C230.221 11.3096 229.667 10.7559 228.984 10.7559C228.301 10.7559 227.747 11.3096 227.747 11.9928C227.747 12.6759 228.301 13.2297 228.984 13.2297Z"
    fill="#FFFFFE"
  />
<path
    d="M212.151 34.7951C212.834 34.7951 213.388 34.2413 213.388 33.5582C213.388 32.8751 212.834 32.3213 212.151 32.3213C211.468 32.3213 210.914 32.8751 210.914 33.5582C210.914 34.2413 211.468 34.7951 212.151 34.7951Z"
    fill="#FFFFFE"
  />
<path
    d="M212.151 31.1916C212.834 31.1916 213.388 30.6378 213.388 29.9547C213.388 29.2716 212.834 28.7178 212.151 28.7178C211.468 28.7178 210.914 29.2716 210.914 29.9547C210.914 30.6378 211.468 31.1916 212.151 31.1916Z"
    fill="#FFFFFE"
  />
<path
    d="M203.816 34.7951C204.499 34.7951 205.052 34.2413 205.052 33.5582C205.052 32.8751 204.499 32.3213 203.816 32.3213C203.132 32.3213 202.579 32.8751 202.579 33.5582C202.579 34.2413 203.132 34.7951 203.816 34.7951Z"
    fill="#FFFFFE"
  />
<path
    d="M203.816 31.1916C204.499 31.1916 205.052 30.6378 205.052 29.9547C205.052 29.2716 204.499 28.7178 203.816 28.7178C203.132 28.7178 202.579 29.2716 202.579 29.9547C202.579 30.6378 203.132 31.1916 203.816 31.1916Z"
    fill="#FFFFFE"
  />
<path
    d="M208.01 34.7951C208.693 34.7951 209.247 34.2413 209.247 33.5582C209.247 32.8751 208.693 32.3213 208.01 32.3213C207.327 32.3213 206.773 32.8751 206.773 33.5582C206.773 34.2413 207.327 34.7951 208.01 34.7951Z"
    fill="#FFFFFE"
  />
<path
    d="M208.01 31.1916C208.693 31.1916 209.247 30.6378 209.247 29.9547C209.247 29.2716 208.693 28.7178 208.01 28.7178C207.327 28.7178 206.773 29.2716 206.773 29.9547C206.773 30.6378 207.327 31.1916 208.01 31.1916Z"
    fill="#FFFFFE"
  />
<path
    d="M208.01 27.5881C208.693 27.5881 209.247 27.0343 209.247 26.3512C209.247 25.668 208.693 25.1143 208.01 25.1143C207.327 25.1143 206.773 25.668 206.773 26.3512C206.773 27.0343 207.327 27.5881 208.01 27.5881Z"
    fill="#FFFFFE"
  />
<path
    d="M208.01 24.0393C208.693 24.0393 209.247 23.4855 209.247 22.8024C209.247 22.1192 208.693 21.5654 208.01 21.5654C207.327 21.5654 206.773 22.1192 206.773 22.8024C206.773 23.4855 207.327 24.0393 208.01 24.0393Z"
    fill="#FFFFFE"
  />
<path
    d="M208.01 20.4357C208.693 20.4357 209.247 19.8819 209.247 19.1988C209.247 18.5157 208.693 17.9619 208.01 17.9619C207.327 17.9619 206.773 18.5157 206.773 19.1988C206.773 19.8819 207.327 20.4357 208.01 20.4357Z"
    fill="#FFFFFE"
  />
<path
    d="M199.513 34.7951C200.196 34.7951 200.75 34.2413 200.75 33.5582C200.75 32.8751 200.196 32.3213 199.513 32.3213C198.83 32.3213 198.276 32.8751 198.276 33.5582C198.276 34.2413 198.83 34.7951 199.513 34.7951Z"
    fill="#FFFFFE"
  />
<path
    d="M199.675 31.1926C200.358 31.1926 200.912 30.6388 200.912 29.9557C200.912 29.2725 200.358 28.7188 199.675 28.7188C198.992 28.7188 198.438 29.2725 198.438 29.9557C198.438 30.6388 198.992 31.1926 199.675 31.1926Z"
    fill="#FFFFFE"
  />
<path
    d="M199.675 27.5891C200.358 27.5891 200.912 27.0353 200.912 26.3522C200.912 25.669 200.358 25.1152 199.675 25.1152C198.992 25.1152 198.438 25.669 198.438 26.3522C198.438 27.0353 198.992 27.5891 199.675 27.5891Z"
    fill="#FFFFFE"
  />
<path
    d="M199.675 24.0392C200.358 24.0392 200.912 23.4855 200.912 22.8023C200.912 22.1192 200.358 21.5654 199.675 21.5654C198.992 21.5654 198.438 22.1192 198.438 22.8023C198.438 23.4855 198.992 24.0392 199.675 24.0392Z"
    fill="#FFFFFE"
  />
<path
    d="M199.675 20.4367C200.358 20.4367 200.912 19.8829 200.912 19.1998C200.912 18.5167 200.358 17.9629 199.675 17.9629C198.992 17.9629 198.438 18.5167 198.438 19.1998C198.438 19.8829 198.992 20.4367 199.675 20.4367Z"
    fill="#FFFFFE"
  />
<path
    d="M199.567 16.8332C200.25 16.8332 200.804 16.2794 200.804 15.5963C200.804 14.9132 200.25 14.3594 199.567 14.3594C198.884 14.3594 198.33 14.9132 198.33 15.5963C198.33 16.2794 198.884 16.8332 199.567 16.8332Z"
    fill="#FFFFFE"
  />
<path
    d="M216.454 34.7951C217.137 34.7951 217.691 34.2413 217.691 33.5582C217.691 32.8751 217.137 32.3213 216.454 32.3213C215.771 32.3213 215.217 32.8751 215.217 33.5582C215.217 34.2413 215.771 34.7951 216.454 34.7951Z"
    fill="#FFFFFE"
  />
<path
    d="M216.346 31.1916C217.029 31.1916 217.583 30.6378 217.583 29.9547C217.583 29.2716 217.029 28.7178 216.346 28.7178C215.663 28.7178 215.109 29.2716 215.109 29.9547C215.109 30.6378 215.663 31.1916 216.346 31.1916Z"
    fill="#FFFFFE"
  />
<path
    d="M216.346 27.5881C217.029 27.5881 217.583 27.0343 217.583 26.3512C217.583 25.668 217.029 25.1143 216.346 25.1143C215.663 25.1143 215.109 25.668 215.109 26.3512C215.109 27.0343 215.663 27.5881 216.346 27.5881Z"
    fill="#FFFFFE"
  />
<path
    d="M216.346 24.0392C217.029 24.0392 217.583 23.4855 217.583 22.8023C217.583 22.1192 217.029 21.5654 216.346 21.5654C215.663 21.5654 215.109 22.1192 215.109 22.8023C215.109 23.4855 215.663 24.0392 216.346 24.0392Z"
    fill="#FFFFFE"
  />
<path
    d="M216.346 20.4358C217.029 20.4358 217.583 19.882 217.583 19.1988C217.583 18.5157 217.029 17.9619 216.346 17.9619C215.663 17.9619 215.109 18.5157 215.109 19.1988C215.109 19.882 215.663 20.4358 216.346 20.4358Z"
    fill="#FFFFFE"
  />
<path
    d="M216.346 16.8322C217.029 16.8322 217.583 16.2784 217.583 15.5953C217.583 14.9122 217.029 14.3584 216.346 14.3584C215.663 14.3584 215.109 14.9122 215.109 15.5953C215.109 16.2784 215.663 16.8322 216.346 16.8322Z"
    fill="#FFFFFE"
  />
<path
    d="M216.346 13.2297C217.029 13.2297 217.583 12.6759 217.583 11.9928C217.583 11.3096 217.029 10.7559 216.346 10.7559C215.663 10.7559 215.109 11.3096 215.109 11.9928C215.109 12.6759 215.663 13.2297 216.346 13.2297Z"
    fill="#FFFFFE"
  />
<path
    d="M216.346 9.62619C217.029 9.62619 217.583 9.0724 217.583 8.38927C217.583 7.70613 217.029 7.15234 216.346 7.15234C215.663 7.15234 215.109 7.70613 215.109 8.38927C215.109 9.0724 215.663 9.62619 216.346 9.62619Z"
    fill="#FFFFFE"
  />
<path
    d="M224.789 34.7951C225.473 34.7951 226.026 34.2413 226.026 33.5582C226.026 32.8751 225.473 32.3213 224.789 32.3213C224.106 32.3213 223.552 32.8751 223.552 33.5582C223.552 34.2413 224.106 34.7951 224.789 34.7951Z"
    fill="#FFFFFE"
  />
<path
    d="M224.789 31.1916C225.473 31.1916 226.026 30.6378 226.026 29.9547C226.026 29.2716 225.473 28.7178 224.789 28.7178C224.106 28.7178 223.552 29.2716 223.552 29.9547C223.552 30.6378 224.106 31.1916 224.789 31.1916Z"
    fill="#FFFFFE"
  />
<path
    d="M224.789 27.5891C225.473 27.5891 226.026 27.0353 226.026 26.3522C226.026 25.669 225.473 25.1152 224.789 25.1152C224.106 25.1152 223.552 25.669 223.552 26.3522C223.552 27.0353 224.106 27.5891 224.789 27.5891Z"
    fill="#FFFFFE"
  />
<path
    d="M224.789 24.0392C225.473 24.0392 226.026 23.4855 226.026 22.8023C226.026 22.1192 225.473 21.5654 224.789 21.5654C224.106 21.5654 223.552 22.1192 223.552 22.8023C223.552 23.4855 224.106 24.0392 224.789 24.0392Z"
    fill="#FFFFFE"
  />
<path
    d="M224.789 20.4358C225.473 20.4358 226.026 19.882 226.026 19.1988C226.026 18.5157 225.473 17.9619 224.789 17.9619C224.106 17.9619 223.552 18.5157 223.552 19.1988C223.552 19.882 224.106 20.4358 224.789 20.4358Z"
    fill="#FFFFFE"
  />
<path
    d="M224.682 16.8332C225.365 16.8332 225.919 16.2794 225.919 15.5963C225.919 14.9132 225.365 14.3594 224.682 14.3594C223.999 14.3594 223.445 14.9132 223.445 15.5963C223.445 16.2794 223.999 16.8332 224.682 16.8332Z"
    fill="#FFFFFE"
  />
<path
    d="M224.682 13.2297C225.365 13.2297 225.919 12.6759 225.919 11.9928C225.919 11.3096 225.365 10.7559 224.682 10.7559C223.999 10.7559 223.445 11.3096 223.445 11.9928C223.445 12.6759 223.999 13.2297 224.682 13.2297Z"
    fill="#FFFFFE"
  />
<path
    d="M224.789 9.62619C225.473 9.62619 226.026 9.0724 226.026 8.38927C226.026 7.70613 225.473 7.15234 224.789 7.15234C224.106 7.15234 223.552 7.70613 223.552 8.38927C223.552 9.0724 224.106 9.62619 224.789 9.62619Z"
    fill="#FFFFFE"
  />
<path
    d="M224.682 6.07733C225.365 6.07733 225.919 5.52355 225.919 4.84042C225.919 4.1573 225.365 3.60352 224.682 3.60352C223.999 3.60352 223.445 4.1573 223.445 4.84042C223.445 5.52355 223.999 6.07733 224.682 6.07733Z"
    fill="#FFFFFE"
  />
<path
    d="M224.682 2.47385C225.365 2.47385 225.919 1.92006 225.919 1.23692C225.919 0.553789 225.365 0 224.682 0C223.999 0 223.445 0.553789 223.445 1.23692C223.445 1.92006 223.999 2.47385 224.682 2.47385Z"
    fill="#FFFFFE"
  />
<path
    d="M145.089 34.7951C145.772 34.7951 146.326 34.2413 146.326 33.5582C146.326 32.8751 145.772 32.3213 145.089 32.3213C144.406 32.3213 143.852 32.8751 143.852 33.5582C143.852 34.2413 144.406 34.7951 145.089 34.7951Z"
    fill="#FFFFFE"
  />
<path
    d="M145.089 31.1916C145.772 31.1916 146.326 30.6378 146.326 29.9547C146.326 29.2716 145.772 28.7178 145.089 28.7178C144.406 28.7178 143.852 29.2716 143.852 29.9547C143.852 30.6378 144.406 31.1916 145.089 31.1916Z"
    fill="#FFFFFE"
  />
<path
    d="M145.089 27.5881C145.772 27.5881 146.326 27.0343 146.326 26.3512C146.326 25.668 145.772 25.1143 145.089 25.1143C144.406 25.1143 143.852 25.668 143.852 26.3512C143.852 27.0343 144.406 27.5881 145.089 27.5881Z"
    fill="#FFFFFE"
  />
<path
    d="M145.089 24.0392C145.772 24.0392 146.326 23.4855 146.326 22.8023C146.326 22.1192 145.772 21.5654 145.089 21.5654C144.406 21.5654 143.852 22.1192 143.852 22.8023C143.852 23.4855 144.406 24.0392 145.089 24.0392Z"
    fill="#FFFFFE"
  />
<path
    d="M145.089 20.4358C145.772 20.4358 146.326 19.882 146.326 19.1988C146.326 18.5157 145.772 17.9619 145.089 17.9619C144.406 17.9619 143.852 18.5157 143.852 19.1988C143.852 19.882 144.406 20.4358 145.089 20.4358Z"
    fill="#FFFFFE"
  />
<path
    d="M145.089 16.8322C145.772 16.8322 146.326 16.2784 146.326 15.5953C146.326 14.9122 145.772 14.3584 145.089 14.3584C144.406 14.3584 143.852 14.9122 143.852 15.5953C143.852 16.2784 144.406 16.8322 145.089 16.8322Z"
    fill="#FFFFFE"
  />
<path
    d="M145.089 13.2297C145.772 13.2297 146.326 12.6759 146.326 11.9928C146.326 11.3096 145.772 10.7559 145.089 10.7559C144.406 10.7559 143.852 11.3096 143.852 11.9928C143.852 12.6759 144.406 13.2297 145.089 13.2297Z"
    fill="#FFFFFE"
  />
<path
    d="M145.089 9.62619C145.772 9.62619 146.326 9.0724 146.326 8.38927C146.326 7.70613 145.772 7.15234 145.089 7.15234C144.406 7.15234 143.852 7.70613 143.852 8.38927C143.852 9.0724 144.406 9.62619 145.089 9.62619Z"
    fill="#FFFFFE"
  />
<path
    d="M115.779 34.7951C116.463 34.7951 117.016 34.2413 117.016 33.5582C117.016 32.8751 116.463 32.3213 115.779 32.3213C115.096 32.3213 114.542 32.8751 114.542 33.5582C114.542 34.2413 115.096 34.7951 115.779 34.7951Z"
    fill="#FFFFFE"
  />
<path
    d="M115.779 31.1916C116.463 31.1916 117.016 30.6378 117.016 29.9547C117.016 29.2716 116.463 28.7178 115.779 28.7178C115.096 28.7178 114.542 29.2716 114.542 29.9547C114.542 30.6378 115.096 31.1916 115.779 31.1916Z"
    fill="#FFFFFE"
  />
<path
    d="M115.779 27.5891C116.463 27.5891 117.016 27.0353 117.016 26.3522C117.016 25.669 116.463 25.1152 115.779 25.1152C115.096 25.1152 114.542 25.669 114.542 26.3522C114.542 27.0353 115.096 27.5891 115.779 27.5891Z"
    fill="#FFFFFE"
  />
<path
    d="M115.779 24.0392C116.463 24.0392 117.016 23.4855 117.016 22.8023C117.016 22.1192 116.463 21.5654 115.779 21.5654C115.096 21.5654 114.542 22.1192 114.542 22.8023C114.542 23.4855 115.096 24.0392 115.779 24.0392Z"
    fill="#FFFFFE"
  />
<path
    d="M115.779 20.4358C116.463 20.4358 117.016 19.882 117.016 19.1988C117.016 18.5157 116.463 17.9619 115.779 17.9619C115.096 17.9619 114.542 18.5157 114.542 19.1988C114.542 19.882 115.096 20.4358 115.779 20.4358Z"
    fill="#FFFFFE"
  />
<path
    d="M115.779 16.8332C116.463 16.8332 117.016 16.2794 117.016 15.5963C117.016 14.9132 116.463 14.3594 115.779 14.3594C115.096 14.3594 114.542 14.9132 114.542 15.5963C114.542 16.2794 115.096 16.8332 115.779 16.8332Z"
    fill="#FFFFFE"
  />
<path
    d="M115.779 13.2297C116.463 13.2297 117.016 12.6759 117.016 11.9928C117.016 11.3096 116.463 10.7559 115.779 10.7559C115.096 10.7559 114.542 11.3096 114.542 11.9928C114.542 12.6759 115.096 13.2297 115.779 13.2297Z"
    fill="#FFFFFE"
  />
<path
    d="M115.779 9.62619C116.463 9.62619 117.016 9.0724 117.016 8.38927C117.016 7.70613 116.463 7.15234 115.779 7.15234C115.096 7.15234 114.542 7.70613 114.542 8.38927C114.542 9.0724 115.096 9.62619 115.779 9.62619Z"
    fill="#FFFFFE"
  />
<path
    d="M115.779 6.07733C116.463 6.07733 117.016 5.52355 117.016 4.84042C117.016 4.1573 116.463 3.60352 115.779 3.60352C115.096 3.60352 114.542 4.1573 114.542 4.84042C114.542 5.52355 115.096 6.07733 115.779 6.07733Z"
    fill="#FFFFFE"
  />
<path
    d="M115.779 2.47385C116.463 2.47385 117.016 1.92006 117.016 1.23692C117.016 0.553789 116.463 0 115.779 0C115.096 0 114.542 0.553789 114.542 1.23692C114.542 1.92006 115.096 2.47385 115.779 2.47385Z"
    fill="#FFFFFE"
  />
<path
    d="M73.8319 34.7951C74.515 34.7951 75.0688 34.2413 75.0688 33.5582C75.0688 32.8751 74.515 32.3213 73.8319 32.3213C73.1488 32.3213 72.595 32.8751 72.595 33.5582C72.595 34.2413 73.1488 34.7951 73.8319 34.7951Z"
    fill="#FFFFFE"
  />
<path
    d="M73.8319 31.1926C74.515 31.1926 75.0688 30.6388 75.0688 29.9557C75.0688 29.2725 74.515 28.7188 73.8319 28.7188C73.1488 28.7188 72.595 29.2725 72.595 29.9557C72.595 30.6388 73.1488 31.1926 73.8319 31.1926Z"
    fill="#FFFFFE"
  />
<path
    d="M73.8319 27.5891C74.515 27.5891 75.0688 27.0353 75.0688 26.3521C75.0688 25.669 74.515 25.1152 73.8319 25.1152C73.1488 25.1152 72.595 25.669 72.595 26.3521C72.595 27.0353 73.1488 27.5891 73.8319 27.5891Z"
    fill="#FFFFFE"
  />
<path
    d="M73.8319 24.0393C74.515 24.0393 75.0688 23.4855 75.0688 22.8024C75.0688 22.1192 74.515 21.5654 73.8319 21.5654C73.1488 21.5654 72.595 22.1192 72.595 22.8024C72.595 23.4855 73.1488 24.0393 73.8319 24.0393Z"
    fill="#FFFFFE"
  />
<path
    d="M73.8319 20.4367C74.515 20.4367 75.0688 19.8829 75.0688 19.1998C75.0688 18.5167 74.515 17.9629 73.8319 17.9629C73.1488 17.9629 72.595 18.5167 72.595 19.1998C72.595 19.8829 73.1488 20.4367 73.8319 20.4367Z"
    fill="#FFFFFE"
  />
<path
    d="M73.8319 16.8332C74.515 16.8332 75.0688 16.2794 75.0688 15.5963C75.0688 14.9132 74.515 14.3594 73.8319 14.3594C73.1488 14.3594 72.595 14.9132 72.595 15.5963C72.595 16.2794 73.1488 16.8332 73.8319 16.8332Z"
    fill="#FFFFFE"
  />
<path
    d="M73.8319 13.2297C74.515 13.2297 75.0688 12.6759 75.0688 11.9928C75.0688 11.3096 74.515 10.7559 73.8319 10.7559C73.1488 10.7559 72.595 11.3096 72.595 11.9928C72.595 12.6759 73.1488 13.2297 73.8319 13.2297Z"
    fill="#FFFFFE"
  />
<path
    d="M73.8319 9.62717C74.515 9.62717 75.0688 9.07338 75.0688 8.39024C75.0688 7.70711 74.515 7.15332 73.8319 7.15332C73.1488 7.15332 72.595 7.70711 72.595 8.39024C72.595 9.07338 73.1488 9.62717 73.8319 9.62717Z"
    fill="#FFFFFE"
  />
<path
    d="M73.8319 6.07733C74.515 6.07733 75.0688 5.52355 75.0688 4.84042C75.0688 4.1573 74.515 3.60352 73.8319 3.60352C73.1488 3.60352 72.595 4.1573 72.595 4.84042C72.595 5.52355 73.1488 6.07733 73.8319 6.07733Z"
    fill="#FFFFFE"
  />
<path
    d="M61.2474 34.7951C61.9305 34.7951 62.4843 34.2413 62.4843 33.5582C62.4843 32.8751 61.9305 32.3213 61.2474 32.3213C60.5643 32.3213 60.0105 32.8751 60.0105 33.5582C60.0105 34.2413 60.5643 34.7951 61.2474 34.7951Z"
    fill="#FFFFFE"
  />
<path
    d="M61.2474 31.1916C61.9305 31.1916 62.4843 30.6378 62.4843 29.9547C62.4843 29.2716 61.9305 28.7178 61.2474 28.7178C60.5643 28.7178 60.0105 29.2716 60.0105 29.9547C60.0105 30.6378 60.5643 31.1916 61.2474 31.1916Z"
    fill="#FFFFFE"
  />
<path
    d="M61.2474 27.5891C61.9305 27.5891 62.4843 27.0353 62.4843 26.3522C62.4843 25.669 61.9305 25.1152 61.2474 25.1152C60.5643 25.1152 60.0105 25.669 60.0105 26.3522C60.0105 27.0353 60.5643 27.5891 61.2474 27.5891Z"
    fill="#FFFFFE"
  />
<path
    d="M61.2474 24.0393C61.9306 24.0393 62.4843 23.4855 62.4843 22.8024C62.4843 22.1192 61.9306 21.5654 61.2474 21.5654C60.5643 21.5654 60.0105 22.1192 60.0105 22.8024C60.0105 23.4855 60.5643 24.0393 61.2474 24.0393Z"
    fill="#FFFFFE"
  />
<path
    d="M52.858 34.7951C53.5411 34.7951 54.0949 34.2413 54.0949 33.5582C54.0949 32.8751 53.5411 32.3213 52.858 32.3213C52.1749 32.3213 51.6211 32.8751 51.6211 33.5582C51.6211 34.2413 52.1749 34.7951 52.858 34.7951Z"
    fill="#FFFFFE"
  />
<path
    d="M52.858 31.1916C53.5411 31.1916 54.0949 30.6378 54.0949 29.9547C54.0949 29.2716 53.5411 28.7178 52.858 28.7178C52.1749 28.7178 51.6211 29.2716 51.6211 29.9547C51.6211 30.6378 52.1749 31.1916 52.858 31.1916Z"
    fill="#FFFFFE"
  />
<path
    d="M52.858 27.5891C53.5411 27.5891 54.0949 27.0353 54.0949 26.3521C54.0949 25.669 53.5411 25.1152 52.858 25.1152C52.1749 25.1152 51.6211 25.669 51.6211 26.3521C51.6211 27.0353 52.1749 27.5891 52.858 27.5891Z"
    fill="#FFFFFE"
  />
<path
    d="M52.858 24.0393C53.5411 24.0393 54.0949 23.4855 54.0949 22.8024C54.0949 22.1192 53.5411 21.5654 52.858 21.5654C52.1749 21.5654 51.6211 22.1192 51.6211 22.8024C51.6211 23.4855 52.1749 24.0393 52.858 24.0393Z"
    fill="#FFFFFE"
  />
<path
    d="M52.858 20.4357C53.5411 20.4357 54.0949 19.8819 54.0949 19.1988C54.0949 18.5157 53.5411 17.9619 52.858 17.9619C52.1749 17.9619 51.6211 18.5157 51.6211 19.1988C51.6211 19.8819 52.1749 20.4357 52.858 20.4357Z"
    fill="#FFFFFE"
  />
<path
    d="M52.858 16.8332C53.5411 16.8332 54.0949 16.2794 54.0949 15.5963C54.0949 14.9132 53.5411 14.3594 52.858 14.3594C52.1749 14.3594 51.6211 14.9132 51.6211 15.5963C51.6211 16.2794 52.1749 16.8332 52.858 16.8332Z"
    fill="#FFFFFE"
  />
<path
    d="M52.858 13.2297C53.5411 13.2297 54.0949 12.6759 54.0949 11.9928C54.0949 11.3096 53.5411 10.7559 52.858 10.7559C52.1749 10.7559 51.6211 11.3096 51.6211 11.9928C51.6211 12.6759 52.1749 13.2297 52.858 13.2297Z"
    fill="#FFFFFE"
  />
<path
    d="M69.6371 34.7951C70.3202 34.7951 70.874 34.2413 70.874 33.5582C70.874 32.8751 70.3202 32.3213 69.6371 32.3213C68.9539 32.3213 68.4001 32.8751 68.4001 33.5582C68.4001 34.2413 68.9539 34.7951 69.6371 34.7951Z"
    fill="#FFFFFE"
  />
<path
    d="M69.6371 31.1916C70.3202 31.1916 70.874 30.6378 70.874 29.9547C70.874 29.2716 70.3202 28.7178 69.6371 28.7178C68.9539 28.7178 68.4001 29.2716 68.4001 29.9547C68.4001 30.6378 68.9539 31.1916 69.6371 31.1916Z"
    fill="#FFFFFE"
  />
<path
    d="M65.4959 34.7951C66.1791 34.7951 66.7328 34.2413 66.7328 33.5582C66.7328 32.8751 66.1791 32.3213 65.4959 32.3213C64.8128 32.3213 64.259 32.8751 64.259 33.5582C64.259 34.2413 64.8128 34.7951 65.4959 34.7951Z"
    fill="#FFFFFE"
  />
<path
    d="M65.4959 31.1916C66.1791 31.1916 66.7328 30.6378 66.7328 29.9547C66.7328 29.2716 66.1791 28.7178 65.4959 28.7178C64.8128 28.7178 64.259 29.2716 64.259 29.9547C64.259 30.6378 64.8128 31.1916 65.4959 31.1916Z"
    fill="#FFFFFE"
  />
<path
    d="M65.4959 27.5891C66.1791 27.5891 66.7328 27.0353 66.7328 26.3521C66.7328 25.669 66.1791 25.1152 65.4959 25.1152C64.8128 25.1152 64.259 25.669 64.259 26.3521C64.259 27.0353 64.8128 27.5891 65.4959 27.5891Z"
    fill="#FFFFFE"
  />
<path
    d="M65.4959 24.0393C66.1791 24.0393 66.7328 23.4855 66.7328 22.8024C66.7328 22.1192 66.1791 21.5654 65.4959 21.5654C64.8128 21.5654 64.259 22.1192 64.259 22.8024C64.259 23.4855 64.8128 24.0393 65.4959 24.0393Z"
    fill="#FFFFFE"
  />
<path
    d="M65.4959 20.4357C66.1791 20.4357 66.7328 19.8819 66.7328 19.1988C66.7328 18.5157 66.1791 17.9619 65.4959 17.9619C64.8128 17.9619 64.259 18.5157 64.259 19.1988C64.259 19.8819 64.8128 20.4357 65.4959 20.4357Z"
    fill="#FFFFFE"
  />
<path
    d="M65.4959 16.8332C66.1791 16.8332 66.7328 16.2794 66.7328 15.5963C66.7328 14.9132 66.1791 14.3594 65.4959 14.3594C64.8128 14.3594 64.259 14.9132 64.259 15.5963C64.259 16.2794 64.8128 16.8332 65.4959 16.8332Z"
    fill="#FFFFFE"
  />
<path
    d="M65.4959 13.2297C66.1791 13.2297 66.7328 12.6759 66.7328 11.9928C66.7328 11.3096 66.1791 10.7559 65.4959 10.7559C64.8128 10.7559 64.259 11.3096 64.259 11.9928C64.259 12.6759 64.8128 13.2297 65.4959 13.2297Z"
    fill="#FFFFFE"
  />
<path
    d="M36.1327 34.7951C36.8158 34.7951 37.3696 34.2413 37.3696 33.5582C37.3696 32.8751 36.8158 32.3213 36.1327 32.3213C35.4495 32.3213 34.8958 32.8751 34.8958 33.5582C34.8958 34.2413 35.4495 34.7951 36.1327 34.7951Z"
    fill="#FFFFFE"
  />
<path
    d="M36.1327 31.1916C36.8158 31.1916 37.3696 30.6378 37.3696 29.9547C37.3696 29.2716 36.8158 28.7178 36.1327 28.7178C35.4495 28.7178 34.8958 29.2716 34.8958 29.9547C34.8958 30.6378 35.4495 31.1916 36.1327 31.1916Z"
    fill="#FFFFFE"
  />
<path
    d="M36.1327 27.5891C36.8158 27.5891 37.3696 27.0353 37.3696 26.3522C37.3696 25.669 36.8158 25.1152 36.1327 25.1152C35.4495 25.1152 34.8958 25.669 34.8958 26.3522C34.8958 27.0353 35.4495 27.5891 36.1327 27.5891Z"
    fill="#FFFFFE"
  />
<path
    d="M36.1327 24.0393C36.8158 24.0393 37.3696 23.4855 37.3696 22.8024C37.3696 22.1192 36.8158 21.5654 36.1327 21.5654C35.4495 21.5654 34.8958 22.1192 34.8958 22.8024C34.8958 23.4855 35.4495 24.0393 36.1327 24.0393Z"
    fill="#FFFFFE"
  />
<path
    d="M40.3275 34.7951C41.0106 34.7951 41.5644 34.2413 41.5644 33.5582C41.5644 32.8751 41.0106 32.3213 40.3275 32.3213C39.6444 32.3213 39.0906 32.8751 39.0906 33.5582C39.0906 34.2413 39.6444 34.7951 40.3275 34.7951Z"
    fill="#FFFFFE"
  />
<path
    d="M40.3275 31.1916C41.0106 31.1916 41.5644 30.6378 41.5644 29.9547C41.5644 29.2716 41.0106 28.7178 40.3275 28.7178C39.6444 28.7178 39.0906 29.2716 39.0906 29.9547C39.0906 30.6378 39.6444 31.1916 40.3275 31.1916Z"
    fill="#FFFFFE"
  />
<path d="M60.1719 42.001H43.1777V46.4109H60.1719V42.001Z" fill="white" />
<path
    d="M52.4815 47.9708V52.1655V52.3806V97.071V97.2323V100.19C52.4815 100.19 52.374 103.686 49.5775 106.321C46.8885 108.795 44.4147 108.902 44.4147 108.902H33.874L33.9278 99.5986H29.6255V113.097C29.6255 113.097 34.1429 113.097 44.7912 113.097C51.406 113.097 56.8914 105.407 56.8914 101.051C56.8914 99.3297 56.8914 97.6625 56.8914 97.1785V97.0172V52.3269H60.1719V47.917H52.4815V47.9708Z"
    fill="white"
  />
<path
    d="M50.9757 52.1655V47.9707H43.2315V52.3806H46.5658V99.1683V100.136C46.5658 100.136 46.6196 101.051 45.7591 102.019C45.0062 102.933 43.9306 102.879 43.9306 102.879H39.8972V99.5447H35.6487V107.289C35.6487 107.289 38.1763 107.289 44.1995 107.289C47.9103 107.289 50.9757 103.04 50.9757 100.62C50.9757 100.083 50.9757 99.5447 50.9757 99.1683V98.4154V52.1655Z"
    fill="white"
  />
<path d="M87.438 42.001H70.4438V46.4109H87.438V42.001Z" fill="white" />
<path d="M87.438 108.849H70.4438V113.151H87.438V108.849Z" fill="white" />
<path
    d="M78.188 52.1655V47.9707H70.4438V52.3806H73.7781V102.879H70.4438V107.289H73.7781H73.8319H78.188V52.1655Z"
    fill="white"
  />
<path
    d="M87.4379 52.3806V47.9707H79.7476V52.1655V52.3806V107.289H84.0499H87.4379V102.879H84.1574V52.3806H87.4379Z"
    fill="white"
  />
<path
    d="M134.064 55.7146H138.366V42.001H110.294C110.294 42.001 97.8171 43.5606 97.8171 55.7146C97.8171 67.8687 97.8171 100.62 97.8171 100.62C97.8171 100.62 98.4087 111.537 109.649 113.151H126.696C126.696 113.151 136 112.505 138.313 101.588V86.1535V72.4399H123.255V69.1056H120.619V76.6884H134.064V100.566C134.064 100.566 133.526 107.558 125.997 108.741C118.414 108.741 110.079 108.741 110.079 108.741C110.079 108.741 103.41 108.203 102.066 100.889C102.066 93.7363 102.066 55.6608 102.066 55.6608V54.2626C102.066 54.2626 102.657 47.4864 110.133 46.3571C117.608 46.3571 134.064 46.3571 134.064 46.3571V55.7146Z"
    fill="white"
  />
<path
    d="M132.558 55.7149H128.256V52.3806H110.563C110.563 52.3806 108.519 52.5958 108.035 54.8545C108.035 57.2208 108.035 99.5448 108.035 99.5448V100.244C108.035 100.244 108.089 102.341 110.67 102.879C113.413 102.879 125.513 102.879 125.513 102.879C125.513 102.879 128.256 102.395 128.256 99.5448V82.6582H123.255V86.1H120.673V78.3559H132.558V99.5448C132.558 99.5448 132.989 106.052 125.621 107.289H110.67C110.67 107.289 104.002 106.859 103.625 99.5448C103.625 92.3922 103.625 55.6612 103.625 55.6612C103.625 55.6612 103.625 48.9926 110.401 47.917C117.231 47.917 132.505 47.917 132.505 47.917L132.558 55.7149Z"
    fill="white"
  />
<path d="M119.006 69.1055H116.371V86.0996H119.006V69.1055Z" fill="white" />
<path
    d="M148.746 46.4109V42.001H172.946C172.946 42.001 184.025 42.2161 185.961 54.1012C185.961 66.3091 185.961 70.7727 185.961 70.7727C185.961 70.7727 185.154 80.9907 174.076 82.7117C162.89 82.7117 162.298 82.7117 162.298 82.7117V102.879H165.74V107.289H157.996V78.3556H173.538C173.538 78.3556 180.422 77.6564 181.659 70.3963C181.659 63.2437 181.659 54.3164 181.659 54.3164C181.659 54.3164 180.906 47.4864 173.753 46.3571C166.816 46.4109 148.746 46.4109 148.746 46.4109Z"
    fill="white"
  />
<path
    d="M148.746 47.9707H156.49V107.289H148.746V102.879H152.08V52.3806H148.746V47.9707Z"
    fill="white"
  />
<path
    d="M180.153 69.1059C180.153 69.1059 180.153 63.0827 180.153 55.6612C179.776 48.3472 173.269 47.917 173.269 47.917H158.05V76.6887C158.05 76.6887 167.3 76.6887 173.861 76.6887C180.314 75.1829 180.153 69.1059 180.153 69.1059ZM175.743 69.805C175.743 69.805 175.366 72.01 173.269 72.4402C171.064 72.4402 162.298 72.4402 162.298 72.4402V52.3806H172.624C172.624 52.3806 175.743 52.2193 175.743 55.7149C175.743 59.2106 175.743 69.805 175.743 69.805Z"
    fill="white"
  />
<path d="M165.74 108.849H148.746V113.151H165.74V108.849Z" fill="white" />
<path d="M213.334 42.001H196.34V46.4109H213.334V42.001Z" fill="white" />
<path d="M243.827 42.001H226.833V46.4108H243.827V42.001Z" fill="white" />
<path
    d="M196.34 47.9707V52.4344H199.675V100.728C199.675 100.728 200.212 111.322 211.614 113.151C223.122 113.151 228.5 113.151 228.5 113.151C228.5 113.151 238.611 112.344 240.385 100.728C240.385 89.1654 240.385 52.4344 240.385 52.4344H243.827V47.9707H236.083V100.244C236.083 100.244 235.868 107.558 228.124 108.848C220.433 108.848 212.044 108.848 212.044 108.848C212.044 108.848 204.515 107.988 204.031 99.5985C204.031 91.2628 204.031 47.9707 204.031 47.9707H196.34Z"
    fill="white"
  />
<path
    d="M213.388 52.3806V47.917H205.644V100.674C205.644 100.674 206.289 106.966 213.388 107.289C220.541 107.289 227.048 107.289 227.048 107.289C227.048 107.289 233.394 107.289 234.416 100.62C234.416 94.0593 234.416 47.917 234.416 47.917H226.833V52.3806H230.167V99.5448V100.244C230.167 100.244 229.845 102.556 227.532 102.879C225.22 102.879 212.582 102.879 212.582 102.879C212.582 102.879 209.946 102.395 209.946 99.8137C209.946 97.2861 209.946 52.3806 209.946 52.3806H213.388Z"
    fill="white"
  />
<path
    d="M18.5471 5.00098H0.800049V108.149H18.5471V5.00098Z"
    stroke="#FFFFFE"
    stroke-miterlimit="10"
  />
<path
    d="M5.37109 103.47H7.09202V102.395H6.60801V101.534H12.685V101.965H13.9757V99.8671H12.685V100.297H6.60801V99.4907H7.09202V98.3613H5.37109V103.47Z"
    fill="#FFFFFE"
  />
<path
    d="M5.37109 91.0475H7.09202V89.9181H6.60801V89.1114H12.685V89.5416H13.9757V87.4443H12.685V87.8745H6.60801V87.0141H7.09202V85.9385H5.37109V91.0475Z"
    fill="#FFFFFE"
  />
<path
    d="M5.47876 55.2302H7.09213V54.1008H6.6619V53.2403H12.7389V53.6706H13.9758V51.5732H12.7389V52.0034H6.6619V51.1967H7.09213V50.0674H5.47876V55.2302Z"
    fill="#FFFFFE"
  />
<path
    d="M5.37109 93.521C5.37109 93.521 5.37109 94.7579 5.37109 95.8872C5.37109 96.9628 6.60801 97.0166 6.60801 97.0166C6.60801 97.0166 11.7708 97.0166 12.685 97.0166C13.922 97.0166 13.922 95.8872 13.922 95.8872C13.922 95.8872 13.922 94.5428 13.922 93.521C13.922 92.3916 12.685 92.3916 12.685 92.3916C12.685 92.3916 8.1676 92.3916 6.71557 92.3916C5.37109 92.4454 5.37109 93.521 5.37109 93.521ZM12.4699 93.521C12.4699 93.521 12.7388 93.521 12.7388 93.7899C12.7388 94.0587 12.7388 95.6183 12.7388 95.6183C12.7388 95.6183 12.7388 95.8872 12.4699 95.8872C12.201 95.8872 6.93069 95.8872 6.93069 95.8872C6.93069 95.8872 6.66179 95.8872 6.66179 95.6183V93.7899C6.66179 93.7899 6.66179 93.521 6.93069 93.521C7.19958 93.521 12.4699 93.521 12.4699 93.521Z"
    fill="#FFFFFE"
  />
<path
    d="M5.37109 36.1391C5.37109 36.1391 5.37109 37.376 5.37109 38.5054C5.37109 39.581 6.60801 39.6348 6.60801 39.6348C6.60801 39.6348 11.7708 39.6348 12.685 39.6348C13.922 39.6348 13.922 38.5054 13.922 38.5054C13.922 38.5054 13.922 37.1609 13.922 36.1391C13.922 35.0098 12.685 35.0098 12.685 35.0098C12.685 35.0098 8.1676 35.0098 6.71557 35.0098C5.37109 35.0098 5.37109 36.1391 5.37109 36.1391ZM12.4699 36.1391C12.4699 36.1391 12.7388 36.1391 12.7388 36.408C12.7388 36.6769 12.7388 38.2365 12.7388 38.2365C12.7388 38.2365 12.7388 38.5054 12.4699 38.5054C12.201 38.5054 6.93069 38.5054 6.93069 38.5054C6.93069 38.5054 6.66179 38.5054 6.66179 38.2365V36.408C6.66179 36.408 6.66179 36.1391 6.93069 36.1391C7.19958 36.1391 12.4699 36.1391 12.4699 36.1391Z"
    fill="#FFFFFE"
  />
<path
    d="M5.37109 16.8325C5.37109 16.8325 5.37109 18.0694 5.37109 19.1987C5.37109 20.2743 6.60801 20.3281 6.60801 20.3281C6.60801 20.3281 11.7708 20.3281 12.685 20.3281C13.922 20.3281 13.922 19.1987 13.922 19.1987C13.922 19.1987 13.922 17.8543 13.922 16.8325C13.922 15.7031 12.685 15.7031 12.685 15.7031C12.685 15.7031 8.1676 15.7031 6.71557 15.7031C5.37109 15.7031 5.37109 16.8325 5.37109 16.8325ZM12.4699 16.8325C12.4699 16.8325 12.7388 16.8325 12.7388 17.1014C12.7388 17.3703 12.7388 18.9298 12.7388 18.9298C12.7388 18.9298 12.7388 19.1987 12.4699 19.1987C12.201 19.1987 6.93069 19.1987 6.93069 19.1987C6.93069 19.1987 6.66179 19.1987 6.66179 18.9298V17.1014C6.66179 17.1014 6.66179 16.8325 6.93069 16.8325C7.19958 16.8325 12.4699 16.8325 12.4699 16.8325Z"
    fill="#FFFFFE"
  />
<path
    d="M12.6851 79.5386H6.98453C6.98453 79.5386 5.31738 79.5386 5.31738 80.7755C5.31738 81.152 5.31738 81.5285 5.31738 81.9049C5.31738 82.2814 5.31738 82.6578 5.31738 83.0343C5.31738 84.2712 6.98453 84.2712 6.98453 84.2712H12.6851V84.7014H13.922V82.604H12.6851V83.0343H10.3188V81.9049V80.7755H12.6851V81.2058H13.922V79.1084H12.6851V79.5386ZM9.0819 80.7755V81.9049V83.0343H7.03831C7.03831 83.0343 6.60808 83.0343 6.60808 82.604C6.60808 82.4427 6.60808 82.1738 6.60808 81.9049C6.60808 81.636 6.60808 81.3671 6.60808 81.2058C6.60808 80.7756 7.03831 80.7755 7.03831 80.7755H9.0819Z"
    fill="#FFFFFE"
  />
<path
    d="M12.6851 63.0826H6.98453C6.98453 63.0826 5.31738 63.0826 5.31738 64.3195C5.31738 64.6959 5.31738 65.0724 5.31738 65.4489C5.31738 65.8253 5.31738 66.2018 5.31738 66.5782C5.31738 67.8151 6.98453 67.8151 6.98453 67.8151H12.6851V68.2454H13.922V66.148H12.6851V66.5782H10.3188V65.4489V64.3195H12.6851V64.7497H13.922V62.6523H12.6851V63.0826ZM9.0819 64.3195V65.4489V66.5782H7.03831C7.03831 66.5782 6.60808 66.5782 6.60808 66.148C6.60808 65.9866 6.60808 65.7177 6.60808 65.4489C6.60808 65.18 6.60808 64.9111 6.60808 64.7497C6.60808 64.3195 7.03831 64.3195 7.03831 64.3195H9.0819Z"
    fill="#FFFFFE"
  />
<path
    d="M5.37109 77.9257V75.9358H6.60801V76.3661H12.685V73.8922H12.2548V72.6553H13.9757V77.9257H12.7388L12.685 77.4954H6.60801V77.9257H5.37109Z"
    fill="#FFFFFE"
  />
<path
    d="M12.685 57.0056L10.2112 59.3181V58.2426C10.2112 58.2426 10.2112 57.3821 9.08185 57.1132C8.00627 57.1132 6.60801 57.1132 6.60801 57.1132C6.60801 57.1132 5.37109 57.3283 5.37109 58.5114C5.37109 59.6946 5.37109 61.5768 5.37109 61.5768H6.60801V61.1466H12.685V61.5768H13.922V59.4795H12.685V59.9097H11.2868L12.685 58.5114H13.922V56.4141H12.685V57.0056ZM6.60801 59.9097V58.6728C6.60801 58.6728 6.60801 58.2426 7.03824 58.2426C7.46848 58.2426 8.81295 58.2426 8.81295 58.2426C8.81295 58.2426 9.08185 58.2426 9.08185 58.5114C9.08185 58.7803 9.08185 59.9097 9.08185 59.9097H6.60801Z"
    fill="#FFFFFE"
  />
<path
    d="M5.37109 40.9795H7.03824V42.1089H6.60801V44.2062C6.60801 44.2062 6.60801 44.4751 6.87691 44.4751C7.1458 44.4751 12.3624 44.4751 12.3624 44.4751C12.3624 44.4751 12.685 44.4751 12.685 44.0987C12.685 43.6684 12.685 42.1626 12.685 42.1626H12.2548V41.0333H13.9219V44.1525C13.9219 44.1525 14.0295 45.6045 12.685 45.6045C11.3406 45.6045 6.60801 45.6045 6.60801 45.6045C6.60801 45.6045 5.37109 45.5507 5.37109 44.3138C5.37109 43.0769 5.37109 40.9795 5.37109 40.9795Z"
    fill="#FFFFFE"
  />
<path
    d="M5.37109 28.9327H7.03824V30.062H6.60801V32.267C6.60801 32.267 6.55423 32.6434 7.03824 32.6434C7.52225 32.6434 8.81295 32.6434 8.81295 32.6434C8.81295 32.6434 9.08184 32.6434 9.08184 32.3207C9.08184 31.9981 9.08184 30.1696 9.08184 30.1696C9.08184 30.1696 9.1894 28.8789 10.5877 28.8789C12.0397 28.8789 12.5237 28.8789 12.5237 28.8789C12.5237 28.8789 13.9757 28.8789 13.9757 30.2772C13.9757 31.6754 13.9757 33.719 13.9757 33.719H12.3086V32.5896H12.7388V30.3847C12.7388 30.3847 12.685 29.9545 12.3086 29.9545C11.9321 29.9545 10.5877 29.9545 10.5877 29.9545C10.5877 29.9545 10.2112 29.9545 10.2112 30.3847C10.2112 30.8149 10.2112 32.4283 10.2112 32.4283C10.2112 32.4283 10.2112 33.6652 8.97428 33.6652C7.73737 33.6652 6.66179 33.6652 6.66179 33.6652C6.66179 33.6652 5.42487 33.5039 5.42487 32.1594C5.37109 30.8687 5.37109 28.9327 5.37109 28.9327Z"
    fill="#FFFFFE"
  />
<path
    d="M5.37109 9.62605H7.03824V10.7554H6.60801V12.9604C6.60801 12.9604 6.55423 13.3368 7.03824 13.3368C7.52225 13.3368 8.81295 13.3368 8.81295 13.3368C8.81295 13.3368 9.08184 13.3368 9.08184 13.0141C9.08184 12.6915 9.08184 10.863 9.08184 10.863C9.08184 10.863 9.1894 9.57227 10.5877 9.57227C12.0397 9.57227 12.5237 9.57227 12.5237 9.57227C12.5237 9.57227 13.9757 9.57226 13.9757 10.9705C13.9757 12.3688 13.9757 14.4124 13.9757 14.4124H12.3086V13.283H12.7388V11.0781C12.7388 11.0781 12.685 10.6478 12.3086 10.6478C11.9321 10.6478 10.5877 10.6478 10.5877 10.6478C10.5877 10.6478 10.2112 10.6478 10.2112 11.0781C10.2112 11.5083 10.2112 13.1217 10.2112 13.1217C10.2112 13.1217 10.2112 14.3586 8.97428 14.3586C7.73737 14.3586 6.66179 14.3586 6.66179 14.3586C6.66179 14.3586 5.42487 14.1973 5.42487 12.8528C5.37109 11.5621 5.37109 9.62605 5.37109 9.62605Z"
    fill="#FFFFFE"
  />
<path
    d="M5.37109 27.6962H6.60801V27.266H12.685V27.6962H13.9757V25.7602H12.685V26.1366H7.25336V26.0291L9.45829 24.7922V24.4695L7.25336 23.2326V23.125H12.685V23.5015H13.9757V21.5654H12.685V21.9957H6.60801V21.5654H5.37109V23.5015L7.25336 24.4695V24.7922L5.37109 25.7602V27.6962Z"
    fill="#FFFFFE"
  />
</svg>
