<svg
  width="91"
  height="45"
  viewBox="0 0 91 45"
  fill="none"
  xmlns="http://www.w3.org/2000/svg"
>
<path
    d="M45.8011 25.4546L45.8153 1.02601C33.1327 1.01865 23.6191 5.04347 16.6746 10.5668L31.1586 29.5613C34.633 27.1297 39.3907 25.4509 45.8011 25.4546Z"
    fill="url(#paint0_linear_791_25966)"
    fill-opacity="0.1"
  />
<path
    d="M68.2577 44.0391L90.0054 35.4803C88.7742 28.8123 84.2739 18.2692 74.7839 10.6005L60.3103 29.5782C66.1283 33.7513 68.1075 40.1299 68.2577 44.0391Z"
    fill="url(#paint1_linear_791_25966)"
    fill-opacity="0.1"
  />
<path
    d="M45.8153 1.02601L45.8011 25.4546C52.2115 25.4583 56.9147 27.1426 60.3103 29.5782L74.7839 10.6005C67.9389 5.06921 58.4979 1.03338 45.8153 1.02601Z"
    fill="url(#paint2_linear_791_25966)"
    fill-opacity="0.1"
  />
<path
    d="M1.0054 35.4286L22.7431 44.0126C23.0199 40.1037 25.2056 33.7276 31.1586 29.5613L16.6746 10.5668C7.04666 18.2243 2.35664 28.7622 1.0054 35.4286Z"
    fill="url(#paint3_linear_791_25966)"
    fill-opacity="0.1"
  />
<path
    d="M45.8011 25.4546L45.8153 1.02601M45.8011 25.4546C39.3907 25.4509 34.633 27.1297 31.1586 29.5613M45.8011 25.4546C52.2115 25.4583 56.9147 27.1426 60.3103 29.5782M45.8153 1.02601C33.1327 1.01865 23.6191 5.04347 16.6746 10.5668M45.8153 1.02601C58.4979 1.03338 67.9389 5.06921 74.7839 10.6005M16.6746 10.5668C7.04666 18.2243 2.35664 28.7622 1.0054 35.4286L22.7431 44.0126C23.0199 40.1037 25.2056 33.7276 31.1586 29.5613M16.6746 10.5668L31.1586 29.5613M60.3103 29.5782C66.1283 33.7513 68.1075 40.1299 68.2577 44.0391L90.0054 35.4803C88.7742 28.8123 84.2739 18.2692 74.7839 10.6005M60.3103 29.5782L74.7839 10.6005"
    stroke="#ABABAB"
    stroke-width="0.2"
  />
<defs>
<linearGradient
      id="paint0_linear_791_25966"
      x1="87.6916"
      y1="26.1932"
      x2="-25.5136"
      y2="30.0984"
      gradientUnits="userSpaceOnUse"
    >
<stop stop-color="#0174D4" />
<stop offset="1" stop-color="white" />
</linearGradient>
<linearGradient
      id="paint1_linear_791_25966"
      x1="87.6916"
      y1="26.1932"
      x2="-25.5136"
      y2="30.0984"
      gradientUnits="userSpaceOnUse"
    >
<stop stop-color="#0174D4" />
<stop offset="1" stop-color="white" />
</linearGradient>
<linearGradient
      id="paint2_linear_791_25966"
      x1="87.6916"
      y1="26.1932"
      x2="-25.5136"
      y2="30.0984"
      gradientUnits="userSpaceOnUse"
    >
<stop stop-color="#0174D4" />
<stop offset="1" stop-color="white" />
</linearGradient>
<linearGradient
      id="paint3_linear_791_25966"
      x1="87.6916"
      y1="26.1932"
      x2="-25.5136"
      y2="30.0984"
      gradientUnits="userSpaceOnUse"
    >
<stop stop-color="#0174D4" />
<stop offset="1" stop-color="white" />
</linearGradient>
</defs>
</svg>
