<svg
  width="89"
  height="90"
  viewBox="0 0 89 90"
  fill="none"
  xmlns="http://www.w3.org/2000/svg"
>
<mask id="path-1-inside-1_4515_23083" fill="white">
<path d="M0 0H89V30H0V0Z" />
</mask>
<path d="M0 0H89V30H0V0Z" fill="#FF0000" fill-opacity="0.87" />
<path
    d="M0 0V-0.5H-0.5V0H0ZM89 0H89.5V-0.5H89V0ZM0 0.5H89V-0.5H0V0.5ZM88.5 0V30H89.5V0H88.5ZM0.5 30V0H-0.5V30H0.5Z"
    fill="white"
    fill-opacity="0.8"
    mask="url(#path-1-inside-1_4515_23083)"
  />
<rect y="30" width="89" height="30" fill="#FF8A00" />
<rect
    x="0.25"
    y="30.25"
    width="88.5"
    height="29.5"
    stroke="white"
    stroke-opacity="0.8"
    stroke-width="0.5"
  />
<mask id="path-5-inside-2_4515_23083" fill="white">
<path d="M0 60H89V90H0V60Z" />
</mask>
<path d="M0 60H89V90H0V60Z" fill="#FFC839" />
<path
    d="M89 90V90.5H89.5V90H89ZM0 90H-0.5V90.5H0V90ZM88.5 60V90H89.5V60H88.5ZM89 89.5H0V90.5H89V89.5ZM0.5 90V60H-0.5V90H0.5Z"
    fill="white"
    fill-opacity="0.8"
    mask="url(#path-5-inside-2_4515_23083)"
  />
</svg>
